<?xml version="1.0" encoding="UTF-8"?>
<svg version="1.1" xmlns="http://www.w3.org/2000/svg" width="512" height="512">
<path d="M0 0 C2.90460161 1.87530104 5.47509398 3.64797595 6.921875 6.8515625 C7.90448898 9.06398901 7.90448898 9.06398901 10.109375 10.1640625 C13.17970582 12.93726453 12.78213599 15.87679261 13.046875 19.9140625 C13.706875 19.9140625 14.366875 19.9140625 15.046875 19.9140625 C15.376875 23.5440625 15.706875 27.1740625 16.046875 30.9140625 C15.386875 30.9140625 14.726875 30.9140625 14.046875 30.9140625 C13.92570313 31.65011719 13.80453125 32.38617188 13.6796875 33.14453125 C13.51210938 34.12035156 13.34453125 35.09617188 13.171875 36.1015625 C12.92824219 37.54595703 12.92824219 37.54595703 12.6796875 39.01953125 C11.00097644 46.69807997 7.39504153 49.70558227 1.47265625 54.4140625 C-0.29759893 55.9315504 -0.29759893 55.9315504 0.046875 58.9140625 C-0.530625 59.1615625 -1.108125 59.4090625 -1.703125 59.6640625 C-4.91064793 61.44601968 -7.30383045 63.6154734 -8.953125 66.9140625 C-10.58849128 68.32035024 -12.22627189 69.72393326 -13.87646484 71.11279297 C-17.66717352 74.40080715 -21.20637282 77.94200591 -24.765625 81.4765625 C-25.52810547 82.21841797 -26.29058594 82.96027344 -27.07617188 83.72460938 C-27.80513672 84.44841797 -28.53410156 85.17222656 -29.28515625 85.91796875 C-29.94233643 86.56580322 -30.5995166 87.2136377 -31.27661133 87.88110352 C-33.12611322 90.12382993 -33.94054776 92.20695697 -34.953125 94.9140625 C-36.953125 97.2265625 -36.953125 97.2265625 -38.953125 98.9140625 C-39.613125 98.9140625 -40.273125 98.9140625 -40.953125 98.9140625 C-41.283125 99.5740625 -41.613125 100.2340625 -41.953125 100.9140625 C-42.860625 101.6771875 -43.768125 102.4403125 -44.703125 103.2265625 C-48.58001678 106.49515536 -52.21308695 109.98684736 -55.828125 113.5390625 C-56.41174805 114.10149658 -56.99537109 114.66393066 -57.59667969 115.2434082 C-58.14485352 115.78698975 -58.69302734 116.33057129 -59.2578125 116.890625 C-59.75265137 117.37611816 -60.24749023 117.86161133 -60.75732422 118.36181641 C-62.09408653 119.8760703 -62.09408653 119.8760703 -62.43798828 121.97802734 C-63.29239446 125.18913682 -66.26942593 126.1614427 -68.953125 127.9140625 C-69.63580638 129.23926753 -70.3038291 130.57218432 -70.953125 131.9140625 C-71.69264404 132.35041016 -72.43216309 132.78675781 -73.1940918 133.23632812 C-77.86548015 136.0769423 -81.46226824 140.09001442 -85.30249023 143.94775391 C-86.77011793 145.41856518 -88.25064808 146.87548852 -89.73242188 148.33203125 C-90.65732422 149.25628906 -91.58222656 150.18054688 -92.53515625 151.1328125 C-93.38311768 151.97779297 -94.2310791 152.82277344 -95.10473633 153.69335938 C-97.27299274 155.81680983 -97.27299274 155.81680983 -96.953125 158.9140625 C-97.71625 159.3678125 -98.479375 159.8215625 -99.265625 160.2890625 C-102.34782801 162.15272014 -103.15526889 163.86552388 -104.953125 166.9140625 C-105.56671875 167.21723389 -106.1803125 167.52040527 -106.8125 167.83276367 C-109.32320866 169.10100371 -110.74171548 170.58349775 -112.640625 172.65234375 C-129.69761077 190.78283223 -129.69761077 190.78283223 -144.578125 191.4765625 C-154.65308439 191.00768014 -161.00631016 187.50487417 -168.140625 180.5234375 C-169.79839824 178.69274129 -169.79839824 178.69274129 -171.953125 178.9140625 C-171.953125 177.2640625 -171.953125 175.6140625 -171.953125 173.9140625 C-173.273125 173.2540625 -174.593125 172.5940625 -175.953125 171.9140625 C-176.17821588 167.62310081 -176.38036452 163.33136377 -176.578125 159.0390625 C-176.64257812 157.81574219 -176.70703125 156.59242188 -176.7734375 155.33203125 C-176.825 154.16542969 -176.8765625 152.99882812 -176.9296875 151.796875 C-176.98205566 150.71809082 -177.03442383 149.63930664 -177.08837891 148.52783203 C-176.953125 145.9140625 -176.953125 145.9140625 -174.953125 143.9140625 C-174.39625 143.2128125 -173.839375 142.5115625 -173.265625 141.7890625 C-170.80937751 138.73534941 -168.2401739 135.8070685 -165.63671875 132.87890625 C-163.98342405 130.94942311 -162.47500238 128.94753143 -160.953125 126.9140625 C-160.4375 126.4190625 -159.921875 125.9240625 -159.390625 125.4140625 C-157.83515077 123.95667223 -157.83515077 123.95667223 -157.015625 121.8515625 C-155.953125 119.9140625 -155.953125 119.9140625 -154.19604492 119.08349609 C-149.67104614 116.72421187 -146.30586198 112.5986948 -142.73413086 109.01074219 C-141.26860798 107.54205192 -139.79024373 106.08720489 -138.31054688 104.6328125 C-137.38435547 103.70726562 -136.45816406 102.78171875 -135.50390625 101.828125 C-134.65481689 100.9820166 -133.80572754 100.1359082 -132.9309082 99.26416016 C-130.82795919 97.14867735 -130.82795919 97.14867735 -130.54370117 94.85693359 C-129.56446763 91.63546171 -126.71577648 90.65345603 -123.953125 88.9140625 C-120.72874815 86.03332187 -117.68821837 82.97898421 -114.63818359 79.91479492 C-113.20139096 78.47482463 -111.75171797 77.04874778 -110.30078125 75.62304688 C-109.38683594 74.70974609 -108.47289062 73.79644531 -107.53125 72.85546875 C-106.70012695 72.02732666 -105.86900391 71.19918457 -105.01269531 70.34594727 C-102.94350998 67.90270934 -102.04668087 65.8868144 -100.953125 62.9140625 C-98.765625 60.9765625 -98.765625 60.9765625 -95.953125 58.9140625 C-90.53421874 54.51048999 -85.53045516 49.70491141 -80.578125 44.7890625 C-79.85496094 44.08652344 -79.13179688 43.38398437 -78.38671875 42.66015625 C-77.69964844 41.97824219 -77.01257813 41.29632813 -76.3046875 40.59375 C-75.68416504 39.98257324 -75.06364258 39.37139648 -74.42431641 38.74169922 C-72.82693042 36.75729307 -72.5317448 35.34911409 -71.953125 32.9140625 C-70.29779877 31.89540021 -68.63052362 30.89595437 -66.953125 29.9140625 C-66.458125 28.9240625 -66.458125 28.9240625 -65.953125 27.9140625 C-64.953125 25.9140625 -64.953125 25.9140625 -62.7175293 24.60375977 C-59.578889 22.68531682 -57.30738578 20.49430247 -54.72265625 17.87890625 C-54.24616135 17.39958145 -53.76966644 16.92025665 -53.2787323 16.42640686 C-51.76956452 14.9061253 -50.26752515 13.37902075 -48.765625 11.8515625 C-47.74590922 10.82180345 -46.72573119 9.79250194 -45.70507812 8.76367188 C-43.11608379 6.15206066 -40.53448242 3.53322283 -37.953125 0.9140625 C-37.293125 0.2540625 -36.633125 -0.4059375 -35.953125 -1.0859375 C-35.293125 -2.0759375 -34.633125 -3.0659375 -33.953125 -4.0859375 C-32.963125 -3.7559375 -31.973125 -3.4259375 -30.953125 -3.0859375 C-29.963125 -3.3953125 -28.973125 -3.7046875 -27.953125 -4.0234375 C-18.17543717 -7.00193484 -8.77548684 -4.87917069 0 0 Z M-39.953125 95.9140625 C-40.283125 96.5740625 -40.613125 97.2340625 -40.953125 97.9140625 C-40.293125 97.9140625 -39.633125 97.9140625 -38.953125 97.9140625 C-39.283125 97.2540625 -39.613125 96.5940625 -39.953125 95.9140625 Z M-175.953125 146.9140625 C-174.953125 148.9140625 -174.953125 148.9140625 -174.953125 148.9140625 Z " fill="#F8BC0C" transform="translate(462.953125,33.0859375)"/>
<path d="M0 0 C1.45922693 0.11409593 2.91740598 0.24165544 4.375 0.375 C5.59316406 0.47941406 5.59316406 0.47941406 6.8359375 0.5859375 C9 1 9 1 11 3 C13.73110254 5.30015289 13.73110254 5.30015289 17.0625 6.375 C19.95759466 7.3089015 20.50303352 9.44268226 22 12 C22.70125 12.350625 23.4025 12.70125 24.125 13.0625 C25.053125 13.5265625 25.053125 13.5265625 26 14 C26.09627686 14.56444824 26.19255371 15.12889648 26.29174805 15.71044922 C27.34172444 19.1046852 29.73176942 21.1399911 32.20703125 23.5703125 C32.9897364 24.35376541 32.9897364 24.35376541 33.78825378 25.15304565 C34.8917854 26.25424026 35.99900316 27.35175155 37.10961914 28.44580078 C38.80467372 30.11728256 40.48603876 31.80166027 42.16601562 33.48828125 C43.24139804 34.55808582 44.31754515 35.62712239 45.39453125 36.6953125 C45.89571976 37.19741241 46.39690826 37.69951233 46.9132843 38.21682739 C49.47857043 40.73084734 51.81441309 42.40743367 55 44 C55.33 44.99 55.66 45.98 56 47 C56.66 47 57.32 47 58 47 C58.06590332 47.55341064 58.13180664 48.10682129 58.19970703 48.67700195 C59.33646285 51.97664551 61.34022654 53.71169464 63.8046875 56.16796875 C64.28447052 56.64825027 64.76425354 57.1285318 65.25857544 57.62336731 C66.27214648 58.63460274 67.28940039 59.64215847 68.31005859 60.64624023 C69.87127893 62.18383523 71.41872077 63.73434962 72.96484375 65.28710938 C77.85891288 70.57677055 77.85891288 70.57677055 84 74 C84.33 74.99 84.66 75.98 85 77 C85.639375 77.28875 86.27875 77.5775 86.9375 77.875 C89 79 89 79 89.82470703 81.2434082 C91.28606065 84.67094116 93.23095019 86.60310363 95.8671875 89.23046875 C96.5811821 89.94521111 96.5811821 89.94521111 97.30960083 90.6743927 C98.312997 91.67545817 99.32006404 92.67285624 100.33056641 93.66674805 C101.87193639 95.18448336 103.39951023 96.71514416 104.92578125 98.24804688 C110.42332002 103.8440345 110.42332002 103.8440345 117 108 C117.75 110.125 117.75 110.125 118 112 C118.99 112 119.98 112 121 112 C121.24314941 112.73065674 121.48629883 113.46131348 121.73681641 114.21411133 C123.15924305 117.35120265 124.77606077 119.14889156 127.2109375 121.57421875 C128.04367187 122.40630859 128.87640625 123.23839844 129.734375 124.09570312 C130.60578125 124.95099609 131.4771875 125.80628906 132.375 126.6875 C133.67050781 127.9878418 133.67050781 127.9878418 134.9921875 129.31445312 C139.20997041 133.73327989 139.20997041 133.73327989 144.21728516 137.10473633 C146.80916264 138.40635434 146.95093527 140.37733818 148 143 C148.64582031 143.27328125 149.29164063 143.5465625 149.95703125 143.828125 C152 145 152 145 153.01171875 147.390625 C153.23472656 148.33421875 153.45773437 149.2778125 153.6875 150.25 C153.9246875 151.23097656 154.161875 152.21195313 154.40625 153.22265625 C155.0296251 156.13857528 155.60058237 159.04430954 156 162 C156.66 162 157.32 162 158 162 C157.67 165.63 157.34 169.26 157 173 C156.34 173 155.68 173 155 173 C153.98888907 176.04913228 153.98888907 176.04913228 155 179 C154 180 153 181 152 182 C151.278125 182.7425 150.55625 183.485 149.8125 184.25 C144.91563878 189.03804208 140.05477083 193.71312441 134 197 C133.01 197.66 132.02 198.32 131 199 C128.39754502 199.14221065 125.90882316 199.18802932 123.3125 199.125 C122.61060547 199.11597656 121.90871094 199.10695313 121.18554688 199.09765625 C119.45688475 199.07413704 117.72839855 199.03826713 116 199 C116 198.34 116 197.68 116 197 C115.40832031 196.80664062 114.81664062 196.61328125 114.20703125 196.4140625 C111.80061357 195.6210831 109.40003336 194.81207159 107 194 C106.01 193.67 105.02 193.34 104 193 C102 192 102 192 101 189 C100.01 188.67 99.02 188.34 98 188 C97.566875 187.071875 97.566875 187.071875 97.125 186.125 C96.11429655 183.76508051 96.11429655 183.76508051 93.4375 182.5 C92.633125 182.005 91.82875 181.51 91 181 C90.86956299 180.4013916 90.73912598 179.8027832 90.60473633 179.18603516 C89.76416869 176.1475036 88.11027674 174.7383344 85.88671875 172.5234375 C85.05076172 171.688125 84.21480469 170.8528125 83.35351562 169.9921875 C82.03383789 168.69667969 82.03383789 168.69667969 80.6875 167.375 C79.38522461 166.06789063 79.38522461 166.06789063 78.05664062 164.734375 C73.00793764 159.70101582 73.00793764 159.70101582 67 156 C65.95831416 154.35906478 64.96327273 152.68815978 64 151 C58.08221398 143.95400298 51.52672519 137.41651827 45.0625 130.875 C44.4240918 130.22354004 43.78568359 129.57208008 43.12792969 128.90087891 C42.51981445 128.29163574 41.91169922 127.68239258 41.28515625 127.0546875 C40.47896851 126.24233643 40.47896851 126.24233643 39.65649414 125.41357422 C37.87803205 123.89591829 36.09043944 123.02535581 34 122 C32.95884159 120.69855198 31.96113866 119.36161311 31 118 C29.9171875 116.948125 29.9171875 116.948125 28.8125 115.875 C27 114 27 114 27 112 C25.43778464 110.27542536 23.80486425 108.61470284 22.14453125 106.984375 C21.64588058 106.4909259 21.14722992 105.99747681 20.63346863 105.48907471 C19.03112692 103.9045887 17.4223135 102.3268915 15.8125 100.75 C14.22134387 99.18661485 12.63171492 97.62175566 11.04508972 96.05377197 C9.59299009 94.61943525 8.13609704 93.18995612 6.67895508 91.76074219 C4.75593392 89.77901219 3.02539989 87.84522639 1.29956055 85.70800781 C-0.71294441 82.89543049 -0.71294441 82.89543049 -3.3125 82.125 C-3.869375 82.08375 -4.42625 82.0425 -5 82 C-5.10272217 81.40977051 -5.20544434 80.81954102 -5.3112793 80.21142578 C-6.11484525 77.63124131 -7.1135662 76.51293068 -9.01953125 74.6171875 C-9.62990234 74.00746094 -10.24027344 73.39773438 -10.86914062 72.76953125 C-11.51044922 72.14433594 -12.15175781 71.51914062 -12.8125 70.875 C-13.44220703 70.24207031 -14.07191406 69.60914063 -14.72070312 68.95703125 C-18.11640518 65.51694429 -18.11640518 65.51694429 -22.15112305 62.93017578 C-24.55274221 61.72191366 -24.82172701 60.35654598 -26 58 C-26.63550781 57.73960937 -27.27101563 57.47921875 -27.92578125 57.2109375 C-31.68231815 55.01785569 -32.04460684 51.13136346 -33.171875 47.13671875 C-34.25854632 42.28171279 -34.64148995 37.39555611 -34.9375 32.4375 C-34.99510498 31.56883301 -35.05270996 30.70016602 -35.11206055 29.80517578 C-35.36392608 23.68741592 -35.36392608 23.68741592 -33.62890625 20.41015625 C-32 19 -32 19 -30 19 C-30.33 17.68 -30.66 16.36 -31 15 C-30.34 14.649375 -29.68 14.29875 -29 13.9375 C-24.21666571 10.84826327 -20.02225664 7.02225664 -16 3 C-14 1 -14 1 -10.7421875 0.8046875 C-9.46601563 0.82789063 -8.18984375 0.85109375 -6.875 0.875 C-4.95300781 0.90207031 -4.95300781 0.90207031 -2.9921875 0.9296875 C-1.51105469 0.96449219 -1.51105469 0.96449219 0 1 C0 0.67 0 0.34 0 0 Z M-34 24 C-33 26 -33 26 -33 26 Z " fill="#ED942F" transform="translate(321,288)"/>
<path d="M0 0 C0 0.33 0 0.66 0 1 C0.845625 1.09796875 1.69125 1.1959375 2.5625 1.296875 C13.70221346 2.76529177 21.15055232 5.80927199 29 14 C29.70125 14.61875 30.4025 15.2375 31.125 15.875 C33.28644491 18.32463756 33.51200445 19.82802893 34 23 C34.99 24.485 34.99 24.485 36 26 C36.44921875 28.7421875 36.44921875 28.7421875 36.6875 31.875 C36.77386719 32.90367187 36.86023438 33.93234375 36.94921875 34.9921875 C36.99740501 37.84629667 36.6779063 40.23740442 36 43 C35.34 43 34.68 43 34 43 C33.690625 44.27875 33.38125 45.5575 33.0625 46.875 C32.22206982 50.34877808 31.58393451 52.41606549 29 55 C28.67 55.66 28.34 56.32 28 57 C26.3754196 58.38766243 24.74961676 59.7739232 23.1171875 61.15234375 C20.71827858 63.24585652 18.41086698 65.40851237 16.125 67.625 C15.36445313 68.35976563 14.60390625 69.09453125 13.8203125 69.8515625 C11.96846075 72.03722444 11.55514619 73.26605422 11 76 C9.67532254 76.6837045 8.34136367 77.34964186 7 78 C6.67 78.66 6.34 79.32 6 80 C5 82 5 82 3.27636719 82.80493164 C0.21746604 84.41082194 -2.0053172 86.69997079 -4.421875 89.12109375 C-4.92672424 89.62165787 -5.43157349 90.12222198 -5.95172119 90.63795471 C-7.01316119 91.69366914 -8.07201379 92.75199063 -9.12841797 93.81274414 C-10.74976198 95.43726151 -12.38401316 97.04797149 -14.01953125 98.65820312 C-15.05028895 99.68668907 -16.08026465 100.71595946 -17.109375 101.74609375 C-17.59992371 102.22743271 -18.09047241 102.70877167 -18.59588623 103.20469666 C-21.51085558 106.04155729 -21.51085558 106.04155729 -22 110 C-24.97 110.99 -24.97 110.99 -28 112 C-28.0825 112.78375 -28.165 113.5675 -28.25 114.375 C-28.4975 115.24125 -28.745 116.1075 -29 117 C-30.31595957 117.70033751 -31.6521126 118.3632726 -33 119 C-35.37422762 120.97455591 -37.51080917 123.18625662 -39.6875 125.375 C-40.57791992 126.24125 -40.57791992 126.24125 -41.48632812 127.125 C-42.05158203 127.68960938 -42.61683594 128.25421875 -43.19921875 128.8359375 C-43.97011841 129.60236572 -43.97011841 129.60236572 -44.7565918 130.38427734 C-46.17654635 132.22940973 -46.59023148 133.72733945 -47 136 C-47.55171875 136.05027344 -48.1034375 136.10054687 -48.671875 136.15234375 C-52.07281765 137.39060643 -53.93829377 139.89635041 -56.25 142.5625 C-61.85043105 148.85795982 -67.74889022 154.78672796 -73.83105469 160.61743164 C-74.48879883 161.26059326 -75.14654297 161.90375488 -75.82421875 162.56640625 C-76.41291748 163.13302979 -77.00161621 163.69965332 -77.6081543 164.28344727 C-79.13831575 165.92070583 -79.13831575 165.92070583 -79.51098633 168.08959961 C-80 170 -80 170 -83 172 C-83.88547794 172.88547794 -84.75638379 173.78547548 -85.625 174.6875 C-87.45814864 176.47240788 -89.29342442 178.11058621 -91.25 179.75 C-98.98847302 185.88822559 -98.98847302 185.88822559 -104 194 C-104.680625 194.12375 -105.36125 194.2475 -106.0625 194.375 C-109.03852834 194.93809356 -109.03852834 194.93809356 -111.9375 196.0625 C-121.70211407 198.90428046 -132.55653666 197.14782111 -142 194 C-142.68426669 192.67561285 -143.349158 191.34112897 -144 190 C-145.64039884 188.40345105 -145.64039884 188.40345105 -147.5 187 C-151.82894073 183.62489367 -153.10687262 180.35876428 -154 175 C-154.66 175 -155.32 175 -156 175 C-158.1552537 168.5342389 -158.27122623 158.90233359 -155.5 152.5625 C-155.005 151.716875 -154.51 150.87125 -154 150 C-153.34 150 -152.68 150 -152 150 C-152.103125 149.236875 -152.20625 148.47375 -152.3125 147.6875 C-152.1578125 146.3571875 -152.1578125 146.3571875 -152 145 C-151.29746094 144.58363281 -150.59492188 144.16726563 -149.87109375 143.73828125 C-146.17591909 141.50106666 -143.63037188 138.68394048 -140.75 135.5 C-139.93789062 134.62794922 -139.93789062 134.62794922 -139.109375 133.73828125 C-136.77901799 131.19236621 -135.10326882 129.30980647 -134 126 C-133.43667969 125.71898437 -132.87335938 125.43796875 -132.29296875 125.1484375 C-129.09195675 123.54520491 -126.8072599 121.13628149 -124.3125 118.625 C-123.81427734 118.14289063 -123.31605469 117.66078125 -122.80273438 117.1640625 C-120.17541599 114.540309 -118.59892687 112.68381046 -118 109 C-115.67043688 106.90339319 -113.99874887 105.99958296 -111 105 C-111 104.01 -111 103.02 -111 102 C-109.0342099 100.61672596 -107.02748632 99.29115336 -105 98 C-101.75739811 95.10086173 -98.69842784 92.02828003 -95.63012695 88.94580078 C-94.18235447 87.49484315 -92.72167353 86.05779212 -91.25976562 84.62109375 C-90.34259766 83.70457031 -89.42542969 82.78804688 -88.48046875 81.84375 C-87.64410889 81.01037109 -86.80774902 80.17699219 -85.94604492 79.31835938 C-84.0026272 77.00312983 -83.64633507 75.83850417 -83 73 C-79.9375 71.25 -79.9375 71.25 -77 70 C-77 69.01 -77 68.02 -77 67 C-75.36542754 65.94835811 -73.69207833 64.95637268 -72 64 C-68.76960166 61.17214908 -65.77917377 58.10369431 -62.75 55.0625 C-61.92242187 54.25103516 -61.09484375 53.43957031 -60.2421875 52.60351562 C-59.45585937 51.81783203 -58.66953125 51.03214844 -57.859375 50.22265625 C-57.14233398 49.50859619 -56.42529297 48.79453613 -55.68652344 48.05883789 C-53.94022018 45.92702327 -53.58322989 44.6262828 -53 42 C-50.625 40.4375 -50.625 40.4375 -48 39 C-47.443125 38.443125 -46.88625 37.88625 -46.3125 37.3125 C-45.879375 36.879375 -45.44625 36.44625 -45 36 C-44.34 36 -43.68 36 -43 36 C-42.78843262 35.46318604 -42.57686523 34.92637207 -42.35888672 34.37329102 C-40.48687979 31.10383731 -37.91809506 28.65260644 -35.2578125 26.02734375 C-34.41064163 25.18086021 -34.41064163 25.18086021 -33.5463562 24.317276 C-32.35341934 23.12735405 -31.15805912 21.93985728 -29.96044922 20.75463867 C-28.13322466 18.94564261 -26.3141015 17.12880063 -24.49609375 15.31054688 C-23.33380348 14.1531735 -22.17105798 12.99625707 -21.0078125 11.83984375 C-20.46601349 11.29915756 -19.92421448 10.75847137 -19.36599731 10.20140076 C-16.70641484 7.57484346 -14.03207462 5.18371995 -11 3 C-10.34 2.34 -9.68 1.68 -9 1 C-5.8035914 -0.06546953 -3.34252724 -0.07427838 0 0 Z M34 27 C34 28.65 34 30.3 34 32 C34.33 32 34.66 32 35 32 C35 30.35 35 28.7 35 27 C34.67 27 34.34 27 34 27 Z M35 33 C36 37 36 37 36 37 Z M-154 151 C-153 154 -153 154 -153 154 Z M-155 155 C-154 157 -154 157 -154 157 Z M-156 158 C-156 162.29 -156 166.58 -156 171 C-155.67 171 -155.34 171 -155 171 C-155 166.71 -155 162.42 -155 158 C-155.33 158 -155.66 158 -156 158 Z " fill="#ED942F" transform="translate(189,288)"/>
<path d="M0 0 C5.43460625 3.95518566 9.99512786 8.99183491 14.71875 13.74609375 C15.56518066 14.596875 16.41161133 15.44765625 17.28369141 16.32421875 C18.9957116 18.0507558 20.70126184 19.78373529 22.39990234 21.5234375 C23.19348145 22.32910156 23.98706055 23.13476562 24.8046875 23.96484375 C25.51608887 24.6930835 26.22749023 25.42132324 26.96044922 26.17163086 C28.90428212 27.91419306 30.6148744 28.9736387 33 30 C33 30.99 33 31.98 33 33 C33.5775 33.0825 34.155 33.165 34.75 33.25 C37.69632751 34.23210917 39.03027912 35.62275066 41 38 C41.09152344 38.5878125 41.18304688 39.175625 41.27734375 39.78125 C42.38312414 43.17629466 44.86891982 45.2617429 47.375 47.6875 C47.87 48.18572266 48.365 48.68394531 48.875 49.19726562 C51.23005413 51.51768661 52.82275328 52.94091776 56 54 C56.67639873 55.32842274 57.34061919 56.66304856 58 58 C59.67587343 59.96709079 61.36072894 61.86712249 63.125 63.75 C63.59292969 64.25660156 64.06085938 64.76320313 64.54296875 65.28515625 C65.69126541 66.52719141 66.84508672 67.76411494 68 69 C68.66 68.67 69.32 68.34 70 68 C70.18820313 68.67675781 70.37640625 69.35351562 70.5703125 70.05078125 C72.58875425 74.21450672 75.58629872 76.98252329 78.875 80.1875 C79.81279297 81.13012695 79.81279297 81.13012695 80.76953125 82.09179688 C84.14150618 85.50421328 84.14150618 85.50421328 88.14892578 88.06762695 C90.55172502 89.27790001 90.82086949 90.64173898 92 93 C92.680625 93.33 93.36125 93.66 94.0625 94 C94.701875 94.33 95.34125 94.66 96 95 C96.10441406 95.57476074 96.20882812 96.14952148 96.31640625 96.74169922 C97.3238785 100.06995576 99.40100207 101.71882479 101.875 104.1328125 C102.35952637 104.61072235 102.84405273 105.0886322 103.34326172 105.58102417 C104.88855833 107.10296093 106.44366764 108.61435724 108 110.125 C109.5545482 111.64447959 111.10693377 113.16608158 112.65673828 114.69039917 C114.0612402 116.07017518 115.47188575 117.44368909 116.8828125 118.81689453 C119 121 119 121 120 123 C120.99 123 121.98 123 123 123 C124.01866229 124.65532623 125.01810813 126.32260138 126 128 C126.99 128.33 127.98 128.66 129 129 C129.34265362 130.33096859 129.67461232 131.66470537 130 133 C131.54256161 134.90412214 131.54256161 134.90412214 133.4375 136.625 C134.05496094 137.21539062 134.67242187 137.80578125 135.30859375 138.4140625 C135.86675781 138.93742188 136.42492187 139.46078125 137 140 C138.97303774 141.97303774 139.77145934 143.54291869 141 146 C141.66 146.66 142.32 147.32 143 148 C145.50295039 154.65989723 144.95701604 161.08103272 144 168 C143.34 168 142.68 168 142 168 C141.94392578 168.93972656 141.94392578 168.93972656 141.88671875 169.8984375 C141.78810547 171.12433594 141.78810547 171.12433594 141.6875 172.375 C141.62949219 173.18710938 141.57148438 173.99921875 141.51171875 174.8359375 C141 177 141 177 138 179 C137.236875 179.763125 136.47375 180.52625 135.6875 181.3125 C127.2144154 189.7855846 119.80098449 193.35670615 107.6640625 193.62890625 C96.22224842 191.66501279 89.16420971 186.09935324 81.4375 177.75 C79.71122143 175.92831178 77.98094489 174.11040118 76.24609375 172.296875 C75.50029053 171.49604492 74.7544873 170.69521484 73.98608398 169.87011719 C72.04761931 167.78246992 72.04761931 167.78246992 69 167 C67.8125 164.9375 67.8125 164.9375 67 163 C66.34 163 65.68 163 65 163 C64.92958496 162.44207764 64.85916992 161.88415527 64.78662109 161.30932617 C63.69211364 158.09612132 61.81243158 156.44079286 59.4140625 154.05078125 C58.48335938 153.12072266 57.55265625 152.19066406 56.59375 151.23242188 C56.10648437 150.75345459 55.61921875 150.2744873 55.1171875 149.78100586 C53.62838783 148.31583406 52.15339056 146.83776103 50.6796875 145.35742188 C45.94051956 140.25635132 45.94051956 140.25635132 40 137 C40 136.01 40 135.02 40 134 C39.4225 133.979375 38.845 133.95875 38.25 133.9375 C36 133 36 133 34.546875 130.1484375 C31.54767407 124.67203077 26.9300812 120.52018326 22.51855469 116.18237305 C20.99486174 114.68244187 19.48510606 113.16944827 17.9765625 111.65429688 C13.30462421 106.68620177 13.30462421 106.68620177 7.74609375 102.88989258 C6 102 6 102 5 99 C4.34 98.690625 3.68 98.38125 3 98.0625 C2.34 97.711875 1.68 97.36125 1 97 C0.89518311 96.42483643 0.79036621 95.84967285 0.68237305 95.25708008 C-0.32884233 91.91229077 -2.43239082 90.25016544 -4.91796875 87.82421875 C-5.41283279 87.33597122 -5.90769684 86.84772369 -6.41755676 86.34468079 C-8.00058442 84.78501276 -9.59338536 83.23582753 -11.1875 81.6875 C-13.26811673 79.6535812 -15.34389626 77.6148083 -17.41796875 75.57421875 C-18.16407913 74.84439285 -18.16407913 74.84439285 -18.92526245 74.099823 C-21.62817537 71.43567497 -24.15504111 68.71181118 -26.55078125 65.76953125 C-27.35902344 64.85558594 -28.16726562 63.94164063 -29 63 C-29.99 63 -30.98 63 -32 63 C-32.09539063 62.41605469 -32.19078125 61.83210938 -32.2890625 61.23046875 C-33.15294231 58.52016452 -34.3454587 57.28637877 -36.375 55.3125 C-36.98085938 54.71050781 -37.58671875 54.10851562 -38.2109375 53.48828125 C-40.03722 51.78559408 -40.03722 51.78559408 -43 51 C-43.12375 50.21625 -43.2475 49.4325 -43.375 48.625 C-43.79117993 45.85942178 -43.79117993 45.85942178 -46 44 C-48.96476918 39.55284623 -48.36826557 35.35765015 -48.375 30.125 C-48.39949219 29.13113281 -48.42398438 28.13726562 -48.44921875 27.11328125 C-48.47885243 19.73449476 -48.47885243 19.73449476 -46.0390625 15.9921875 C-45.36617187 15.33476563 -44.69328125 14.67734375 -44 14 C-43.67 13.01 -43.34 12.02 -43 11 C-42 10 -41 9 -40 8 C-39.690625 7.29875 -39.38125 6.5975 -39.0625 5.875 C-38.5365625 4.946875 -38.5365625 4.946875 -38 4 C-36.66666667 3.66666667 -35.33333333 3.33333333 -34 3 C-33.731875 2.34 -33.46375 1.68 -33.1875 1 C-32.795625 0.34 -32.40375 -0.32 -32 -1 C-28.625 -1.6875 -28.625 -1.6875 -25 -2 C-24.38253906 -2.16628906 -23.76507813 -2.33257813 -23.12890625 -2.50390625 C-15.59623817 -4.25922523 -6.8254847 -3.74419574 0 0 Z M-47 20 C-46 23 -46 23 -46 23 Z M-47 37 C-46 40 -46 40 -46 40 Z M141 148 C142 152 142 152 142 152 Z M142 152 C142 153.98 142 155.96 142 158 C142.33 158 142.66 158 143 158 C143 156.02 143 154.04 143 152 C142.67 152 142.34 152 142 152 Z M143 158 C144 162 144 162 144 162 Z " fill="#F7BB0C" transform="translate(81,31)"/>
<path d="M0 0 C1.24030158 1.00727522 2.47054481 2.02713946 3.6875 3.0625 C7.01928196 5.83033861 7.01928196 5.83033861 10.6875 8.0625 C11.25 9.875 11.25 9.875 11.6875 12.0625 C12.26713766 14.45350534 12.90750624 16.72251872 13.6875 19.0625 C13.76959792 20.83563851 13.79496294 22.61170775 13.78515625 24.38671875 C13.78032227 25.92875977 13.78032227 25.92875977 13.77539062 27.50195312 C13.76282227 29.10973633 13.76282227 29.10973633 13.75 30.75 C13.74548828 31.83345703 13.74097656 32.91691406 13.73632812 34.03320312 C13.72453743 36.70969085 13.70808063 39.38606777 13.6875 42.0625 C13.0275 42.0625 12.3675 42.0625 11.6875 42.0625 C11.3575 43.7125 11.0275 45.3625 10.6875 47.0625 C9.6975 47.3925 8.7075 47.7225 7.6875 48.0625 C7.543125 48.701875 7.39875 49.34125 7.25 50 C6.9715625 51.0209375 6.9715625 51.0209375 6.6875 52.0625 C5.37813033 52.77508213 4.03841726 53.43222642 2.6875 54.0625 C0.15259105 55.59400749 -2.36183533 57.15575937 -4.875 58.72265625 C-12.06796637 62.67648231 -22.21695375 62.06713817 -30 60.125 C-36.28585203 58.10878331 -36.28585203 58.10878331 -37.5 56 C-37.768125 55.360625 -38.03625 54.72125 -38.3125 54.0625 C-39.3025 54.0625 -40.2925 54.0625 -41.3125 54.0625 C-41.9725 53.0725 -42.6325 52.0825 -43.3125 51.0625 C-44.3025 50.4025 -45.2925 49.7425 -46.3125 49.0625 C-51.217617 40.6147985 -51.91758211 27.76839519 -49.67578125 18.40234375 C-49.1618314 16.90060736 -48.61606811 15.40917648 -48.03125 13.93359375 C-47.18421685 11.93085576 -47.18421685 11.93085576 -46.875 9.125 C-46.5965625 8.1040625 -46.5965625 8.1040625 -46.3125 7.0625 C-44.9838202 6.38660636 -43.64960496 5.72156946 -42.3125 5.0625 C-41.01237081 3.95001832 -39.7423958 2.80160702 -38.5 1.625 C-27.64558756 -8.07940963 -11.72766265 -8.72396751 0 0 Z " fill="#F1A71D" transform="translate(273.3125,228.9375)"/>
<path d="M0 0 C0.66 0.33 1.32 0.66 2 1 C0.12973998 3.06697022 -1.74595184 5.12854297 -3.625 7.1875 C-4.14707031 7.76564453 -4.66914063 8.34378906 -5.20703125 8.93945312 C-8.58744053 12.63286326 -12.08434071 15.87805543 -16 19 C-16.33 17.68 -16.66 16.36 -17 15 C-15.6078125 14.1028125 -15.6078125 14.1028125 -14.1875 13.1875 C-11.11550825 11.22220454 -11.11550825 11.22220454 -9.25 9.25 C-8.8375 8.8375 -8.425 8.425 -8 8 C-7.34 8 -6.68 8 -6 8 C-5.7525 7.4225 -5.505 6.845 -5.25 6.25 C-3.83316683 3.6997003 -2.12372463 1.98214299 0 0 Z " fill="#EA9E28" transform="translate(152,316)"/>
<path d="M0 0 C0.33 0 0.66 0 1 0 C1.33 3.63 1.66 7.26 2 11 C1.34 11 0.68 11 0 11 C-0.66 11.66 -1.32 12.32 -2 13 C-2.05416188 11.39620659 -2.09286638 9.79188594 -2.125 8.1875 C-2.14820313 7.29417969 -2.17140625 6.40085937 -2.1953125 5.48046875 C-2 3 -2 3 0 0 Z " fill="#7F4401" transform="translate(477,53)"/>
<path d="M0 0 C0 3 0 3 -2.5 5.6875 C-3.325 6.450625 -4.15 7.21375 -5 8 C-5.99 7.67 -6.98 7.34 -8 7 C-6.98590222 4.46475554 -6.38502734 3.22860998 -4 1.8125 C-3.34 1.544375 -2.68 1.27625 -2 1 C-1.34 0.67 -0.68 0.34 0 0 Z " fill="#89581B" transform="translate(78,393)"/>
<path d="M0 0 C0.99 0.33 1.98 0.66 3 1 C0.69 3.31 -1.62 5.62 -4 8 C-4.66 6.68 -5.32 5.36 -6 4 C-3.1875 1.9375 -3.1875 1.9375 0 0 Z " fill="#A16E1A" transform="translate(141,327)"/>
<path d="M0 0 C-0.17625835 2.37948772 -0.69719773 3.70225849 -2.40234375 5.37890625 C-3.90649092 6.62115486 -5.45129851 7.81376056 -7 9 C-6.39285714 3.53571429 -6.39285714 3.53571429 -4.625 1.125 C-3 0 -3 0 0 0 Z " fill="#A98F02" transform="translate(402,58)"/>
<path d="M0 0 C5.94 0.33 11.88 0.66 18 1 C18 1.33 18 1.66 18 2 C15.5622037 2.05397335 13.12560315 2.09365616 10.6875 2.125 C9.65206055 2.15013672 9.65206055 2.15013672 8.59570312 2.17578125 C4.82864604 2.21217794 3.21568296 2.14378864 0 0 Z " fill="#000000" transform="translate(55,485)"/>
<path d="M0 0 C0.99 0 1.98 0 3 0 C2.67 3.63 2.34 7.26 2 11 C1.67 11 1.34 11 1 11 C0.67 7.37 0.34 3.74 0 0 Z " fill="#0D0000" transform="translate(476,450)"/>
<path d="M0 0 C0.33 0 0.66 0 1 0 C1 5.94 1 11.88 1 18 C0.67 18 0.34 18 0 18 C0 12.06 0 6.12 0 0 Z " fill="#000000" transform="translate(288,248)"/>
<path d="M0 0 C0.99 0.33 1.98 0.66 3 1 C3.6875 3.0625 3.6875 3.0625 4 5 C2.68 5 1.36 5 0 5 C-0.5625 3.0625 -0.5625 3.0625 -1 1 C-0.67 0.67 -0.34 0.34 0 0 Z " fill="#79590C" transform="translate(288,201)"/>
<path d="M0 0 C0.33 0 0.66 0 1 0 C1 4.62 1 9.24 1 14 C0.67 14 0.34 14 0 14 C0 9.38 0 4.76 0 0 Z " fill="#000000" transform="translate(32,54)"/>
<path d="M0 0 C1.45922693 0.11409593 2.91740598 0.24165544 4.375 0.375 C5.59316406 0.47941406 5.59316406 0.47941406 6.8359375 0.5859375 C9 1 9 1 11 3 C7.37 2.34 3.74 1.68 0 1 C0 0.67 0 0.34 0 0 Z " fill="#000000" transform="translate(194,288)"/>
<path d="M0 0 C0.33 0 0.66 0 1 0 C1 3.96 1 7.92 1 12 C0.67 12 0.34 12 0 12 C0 8.04 0 4.08 0 0 Z " fill="#000000" transform="translate(221,251)"/>
<path d="M0 0 C-3.4019487 2.09350689 -6.05272412 2.17942163 -10 2 C-10 1.67 -10 1.34 -10 1 C-6.59437148 0.22157062 -3.49234244 -0.09978121 0 0 Z " fill="#000000" transform="translate(321,287)"/>
<path d="M0 0 C0 0.99 0 1.98 0 3 C-2 4.6875 -2 4.6875 -4 6 C-2.84826645 3.53199953 -1.95216435 1.95216435 0 0 Z " fill="#000000" transform="translate(371,184)"/>
<path d="M0 0 C0.66 0.33 1.32 0.66 2 1 C0.35 2.32 -1.3 3.64 -3 5 C-1.125 1.125 -1.125 1.125 0 0 Z " fill="#000000" transform="translate(330,129)"/>
<path d="M0 0 C1.0625 1.8125 1.0625 1.8125 2 4 C1.67 4.99 1.34 5.98 1 7 C0.67 4.69 0.34 2.38 0 0 Z " fill="#000000" transform="translate(285,327)"/>
<path d="M0 0 C0.66 0.33 1.32 0.66 2 1 C1.01 1.99 0.02 2.98 -1 4 C-1.66 3.67 -2.32 3.34 -3 3 C-2.01 2.01 -1.02 1.02 0 0 Z " fill="#000000" transform="translate(165,300)"/>
<path d="M0 0 C2.64 0 5.28 0 8 0 C8 0.33 8 0.66 8 1 C5.36 1 2.72 1 0 1 C0 0.67 0 0.34 0 0 Z " fill="#000000" transform="translate(251,291)"/>
<path d="M0 0 C1.32 1.32 2.64 2.64 4 4 C2.68 3.34 1.36 2.68 0 2 C0 1.34 0 0.68 0 0 Z " fill="#000000" transform="translate(406,461)"/>
<path d="M0 0 C0 0.99 0 1.98 0 3 C-0.99 3 -1.98 3 -3 3 C-2.01 2.01 -1.02 1.02 0 0 Z " fill="#000000" transform="translate(138,425)"/>
<path d="M0 0 C1.98 0.99 1.98 0.99 4 2 C3.67 2.66 3.34 3.32 3 4 C2.01 2.68 1.02 1.36 0 0 Z " fill="#000C00" transform="translate(320,373)"/>
<path d="M0 0 C1.98 0.99 1.98 0.99 4 2 C3.67 2.66 3.34 3.32 3 4 C2.01 2.68 1.02 1.36 0 0 Z " fill="#0C0C00" transform="translate(348,305)"/>
<path d="M0 0 C0.66 0.33 1.32 0.66 2 1 C0.68 1.99 -0.64 2.98 -2 4 C-1.34 2.68 -0.68 1.36 0 0 Z " fill="#000000" transform="translate(171,294)"/>
<path d="M0 0 C1.98 0.99 1.98 0.99 4 2 C3.67 2.66 3.34 3.32 3 4 C2.01 2.68 1.02 1.36 0 0 Z " fill="#000000" transform="translate(144,94)"/>
<path d="M0 0 C1.98 0.99 1.98 0.99 4 2 C3.67 2.66 3.34 3.32 3 4 C2.01 2.68 1.02 1.36 0 0 Z " fill="#000000" transform="translate(89,37)"/>
<path d="M0 0 C0.33 0 0.66 0 1 0 C1 1.98 1 3.96 1 6 C0.67 6 0.34 6 0 6 C0 4.02 0 2.04 0 0 Z " fill="#000000" transform="translate(477,444)"/>
<path d="M0 0 C1.98 0.99 1.98 0.99 4 2 C3.01 2 2.02 2 1 2 C0.67 1.34 0.34 0.68 0 0 Z " fill="#000000" transform="translate(52,96)"/>
<path d="M0 0 C0.66 0.33 1.32 0.66 2 1 C1.01 1.66 0.02 2.32 -1 3 C-0.67 2.01 -0.34 1.02 0 0 Z " fill="#000000" transform="translate(45,424)"/>
<path d="M0 0 C0.99 0.33 1.98 0.66 3 1 C2.67 1.66 2.34 2.32 2 3 C1.34 2.01 0.68 1.02 0 0 Z " fill="#000000" transform="translate(443,403)"/>
<path d="M0 0 C0.66 0.33 1.32 0.66 2 1 C1.01 1.66 0.02 2.32 -1 3 C-0.67 2.01 -0.34 1.02 0 0 Z " fill="#000000" transform="translate(100,367)"/>
<path d="M0 0 C0.99 0.33 1.98 0.66 3 1 C2.67 1.66 2.34 2.32 2 3 C1.34 2.01 0.68 1.02 0 0 Z " fill="#000000" transform="translate(385,343)"/>
<path d="M0 0 C0.66 1.32 1.32 2.64 2 4 C1.34 3.67 0.68 3.34 0 3 C0 2.01 0 1.02 0 0 Z " fill="#000000" transform="translate(287,334)"/>
<path d="M0 0 C1.65 0 3.3 0 5 0 C5 0.33 5 0.66 5 1 C3.35 1 1.7 1 0 1 C0 0.67 0 0.34 0 0 Z " fill="#000000" transform="translate(189,287)"/>
<path d="M0 0 C0.33 0.66 0.66 1.32 1 2 C0.34 2.66 -0.32 3.32 -1 4 C-0.67 2.68 -0.34 1.36 0 0 Z " fill="#000000" transform="translate(225,239)"/>
<path d="M0 0 C0.66 0.33 1.32 0.66 2 1 C0.68 1.33 -0.64 1.66 -2 2 C-1.34 1.34 -0.68 0.68 0 0 Z " fill="#000000" transform="translate(331,222)"/>
<path d="M0 0 C0.99 0.99 1.98 1.98 3 3 C2.01 2.67 1.02 2.34 0 2 C0 1.34 0 0.68 0 0 Z " fill="#000000" transform="translate(140,186)"/>
<path d="M0 0 C0.99 0.99 1.98 1.98 3 3 C2.01 2.67 1.02 2.34 0 2 C0 1.34 0 0.68 0 0 Z " fill="#000000" transform="translate(137,183)"/>
<path d="M0 0 C0.99 0.33 1.98 0.66 3 1 C2.67 1.66 2.34 2.32 2 3 C1.34 2.01 0.68 1.02 0 0 Z " fill="#000000" transform="translate(215,167)"/>
<path d="M0 0 C0.99 0.99 1.98 1.98 3 3 C2.01 2.67 1.02 2.34 0 2 C0 1.34 0 0.68 0 0 Z " fill="#000000" transform="translate(103,148)"/>
<path d="M0 0 C0.99 0.33 1.98 0.66 3 1 C2.67 1.66 2.34 2.32 2 3 C1.34 2.01 0.68 1.02 0 0 Z " fill="#000000" transform="translate(152,102)"/>
<path d="M0 0 C0 0.99 0 1.98 0 3 C-0.66 2.67 -1.32 2.34 -2 2 C-1.34 1.34 -0.68 0.68 0 0 Z " fill="#111100" transform="translate(457,95)"/>
<path d="M0 0 C0.33 0 0.66 0 1 0 C1 1.65 1 3.3 1 5 C0.67 5 0.34 5 0 5 C0 3.35 0 1.7 0 0 Z " fill="#000000" transform="translate(477,64)"/>
<path d="M0 0 C1 4 1 4 1 4 Z " fill="#000000" transform="translate(285,314)"/>
<path d="M0 0 C1 4 1 4 1 4 Z " fill="#000000" transform="translate(222,263)"/>
<path d="M0 0 C1 4 1 4 1 4 Z " fill="#000000" transform="translate(222,246)"/>
<path d="M0 0 C4 1 4 1 4 1 Z " fill="#000000" transform="translate(320,225)"/>
<path d="M0 0 C1 4 1 4 1 4 Z " fill="#000000" transform="translate(223,199)"/>
<path d="M0 0 C1 4 1 4 1 4 Z " fill="#000000" transform="translate(285,182)"/>
<path d="M0 0 C0.99 0.33 1.98 0.66 3 1 C2.01 1 1.02 1 0 1 C0 0.67 0 0.34 0 0 Z " fill="#000000" transform="translate(181,132)"/>
<path d="M0 0 C0.99 0.495 0.99 0.495 2 1 C1.67 1.66 1.34 2.32 1 3 C0.67 2.01 0.34 1.02 0 0 Z " fill="#000000" transform="translate(470,39)"/>
<path d="M0 0 C3 1 3 1 3 1 Z " fill="#000000" transform="translate(434,485)"/>
<path d="M0 0 C3 1 3 1 3 1 Z " fill="#000000" transform="translate(73,485)"/>
<path d="" fill="#000000" transform="translate(0,0)"/>
<path d="M0 0 C0.66 0.66 1.32 1.32 2 2 C1.34 2 0.68 2 0 2 C0 1.34 0 0.68 0 0 Z " fill="#000000" transform="translate(379,433)"/>
<path d="M0 0 C0.66 0.66 1.32 1.32 2 2 C1.34 2 0.68 2 0 2 C0 1.34 0 0.68 0 0 Z " fill="#000000" transform="translate(377,431)"/>
<path d="M0 0 C0.66 0 1.32 0 2 0 C1.67 0.66 1.34 1.32 1 2 C0.67 1.34 0.34 0.68 0 0 Z " fill="#000000" transform="translate(469,430)"/>
<path d="M0 0 C0.99 0.495 0.99 0.495 2 1 C1.01 1.495 1.01 1.495 0 2 C0 1.34 0 0.68 0 0 Z " fill="#000000" transform="translate(65,403)"/>
<path d="M0 0 C0.33 0.66 0.66 1.32 1 2 C0.34 1.67 -0.32 1.34 -1 1 C-0.67 0.67 -0.34 0.34 0 0 Z " fill="#000000" transform="translate(170,392)"/>
<path d="M0 0 C0.66 0 1.32 0 2 0 C1.67 0.66 1.34 1.32 1 2 C0.67 1.34 0.34 0.68 0 0 Z " fill="#000000" transform="translate(420,379)"/>
<path d="M0 0 C0.99 0.495 0.99 0.495 2 1 C1.01 1.495 1.01 1.495 0 2 C0 1.34 0 0.68 0 0 Z " fill="#000000" transform="translate(94,373)"/>
<path d="M0 0 C0.33 0.66 0.66 1.32 1 2 C0.34 1.67 -0.32 1.34 -1 1 C-0.67 0.67 -0.34 0.34 0 0 Z " fill="#000000" transform="translate(204,357)"/>
<path d="M0 0 C0.66 0 1.32 0 2 0 C1.67 0.66 1.34 1.32 1 2 C0.67 1.34 0.34 0.68 0 0 Z " fill="#000000" transform="translate(383,341)"/>
<path d="M0 0 C0.99 0.495 0.99 0.495 2 1 C1.01 1.495 1.01 1.495 0 2 C0 1.34 0 0.68 0 0 Z " fill="#000000" transform="translate(128,338)"/>
<path d="" fill="#000000" transform="translate(0,0)"/>
<path d="M0 0 C0.99 0.495 0.99 0.495 2 1 C1.01 1.495 1.01 1.495 0 2 C0 1.34 0 0.68 0 0 Z " fill="#000000" transform="translate(157,308)"/>
<path d="" fill="#000000" transform="translate(0,0)"/>
<path d="" fill="#000000" transform="translate(0,0)"/>
<path d="M0 0 C0.66 0 1.32 0 2 0 C1.67 0.66 1.34 1.32 1 2 C0.67 1.34 0.34 0.68 0 0 Z " fill="#000000" transform="translate(278,232)"/>
<path d="M0 0 C0.66 0 1.32 0 2 0 C1.67 0.66 1.34 1.32 1 2 C0.67 1.34 0.34 0.68 0 0 Z " fill="#000000" transform="translate(276,230)"/>
<path d="M0 0 C3 1 3 1 3 1 Z " fill="#000000" transform="translate(314,225)"/>
<path d="M0 0 C3 1 3 1 3 1 Z " fill="#000000" transform="translate(193,225)"/>
<path d="M0 0 C3 1 3 1 3 1 Z " fill="#000000" transform="translate(187,225)"/>
<path d="M0 0 C3 1 3 1 3 1 Z " fill="#000000" transform="translate(326,224)"/>
<path d="M0 0 C3 1 3 1 3 1 Z " fill="#000000" transform="translate(309,224)"/>
<path d="M0 0 C3 1 3 1 3 1 Z " fill="#000000" transform="translate(198,224)"/>
<path d="M0 0 C3 1 3 1 3 1 Z " fill="#000000" transform="translate(182,224)"/>
<path d="M0 0 C3 1 3 1 3 1 Z " fill="#000000" transform="translate(306,223)"/>
<path d="M0 0 C3 1 3 1 3 1 Z " fill="#000000" transform="translate(201,223)"/>
<path d="M0 0 C3 1 3 1 3 1 Z " fill="#000000" transform="translate(179,223)"/>
<path d="M0 0 C3 1 3 1 3 1 Z " fill="#000000" transform="translate(246,222)"/>
<path d="M0 0 C0.33 0.66 0.66 1.32 1 2 C0.34 1.67 -0.32 1.34 -1 1 C-0.67 0.67 -0.34 0.34 0 0 Z " fill="#000000" transform="translate(342,214)"/>
<path d="M0 0 C0.66 0.66 1.32 1.32 2 2 C1.34 2 0.68 2 0 2 C0 1.34 0 0.68 0 0 Z " fill="#000000" transform="translate(161,208)"/>
<path d="" fill="#000000" transform="translate(0,0)"/>
<path d="M0 0 C0.66 0.66 1.32 1.32 2 2 C1.34 2 0.68 2 0 2 C0 1.34 0 0.68 0 0 Z " fill="#000000" transform="translate(144,190)"/>
<path d="M0 0 C0.99 0.495 0.99 0.495 2 1 C1.01 1.495 1.01 1.495 0 2 C0 1.34 0 0.68 0 0 Z " fill="#000000" transform="translate(298,162)"/>
<path d="M0 0 C0.66 0 1.32 0 2 0 C1.67 0.66 1.34 1.32 1 2 C0.67 1.34 0.34 0.68 0 0 Z " fill="#000000" transform="translate(210,162)"/>
<path d="M0 0 C0.33 0.66 0.66 1.32 1 2 C0.34 1.67 -0.32 1.34 -1 1 C-0.67 0.67 -0.34 0.34 0 0 Z " fill="#000000" transform="translate(403,151)"/>
<path d="M0 0 C0.33 0.66 0.66 1.32 1 2 C0.34 1.67 -0.32 1.34 -1 1 C-0.67 0.67 -0.34 0.34 0 0 Z " fill="#000000" transform="translate(405,149)"/>
<path d="M0 0 C0.66 0 1.32 0 2 0 C1.67 0.66 1.34 1.32 1 2 C0.67 1.34 0.34 0.68 0 0 Z " fill="#000000" transform="translate(179,130)"/>
<path d="M0 0 C0.66 0 1.32 0 2 0 C1.67 0.66 1.34 1.32 1 2 C0.67 1.34 0.34 0.68 0 0 Z " fill="#000000" transform="translate(158,108)"/>
<path d="M0 0 C0.99 0.495 0.99 0.495 2 1 C1.01 1.495 1.01 1.495 0 2 C0 1.34 0 0.68 0 0 Z " fill="#000000" transform="translate(356,102)"/>
<path d="M0 0 C0.66 0 1.32 0 2 0 C1.67 0.66 1.34 1.32 1 2 C0.67 1.34 0.34 0.68 0 0 Z " fill="#000000" transform="translate(124,73)"/>
<path d="M0 0 C0.99 0.495 0.99 0.495 2 1 C1.01 1.495 1.01 1.495 0 2 C0 1.34 0 0.68 0 0 Z " fill="#000000" transform="translate(419,37)"/>
<path d="M0 0 C3 1 3 1 3 1 Z " fill="#000000" transform="translate(443,26)"/>
<path d="M0 0 C3 1 3 1 3 1 Z " fill="#000000" transform="translate(64,26)"/>
<path d="M0 0 C2 1 2 1 2 1 Z " fill="#000000" transform="translate(428,483)"/>
<path d="M0 0 C2 1 2 1 2 1 Z " fill="#000000" transform="translate(460,482)"/>
<path d="" fill="#000000" transform="translate(0,0)"/>
<path d="" fill="#000000" transform="translate(0,0)"/>
<path d="" fill="#000000" transform="translate(0,0)"/>
<path d="" fill="#000000" transform="translate(0,0)"/>
<path d="" fill="#000000" transform="translate(0,0)"/>
<path d="" fill="#000000" transform="translate(0,0)"/>
<path d="" fill="#000000" transform="translate(0,0)"/>
<path d="" fill="#000000" transform="translate(0,0)"/>
<path d="M0 0 C2 1 2 1 2 1 Z " fill="#000000" transform="translate(295,297)"/>
<path d="M0 0 C2 1 2 1 2 1 Z " fill="#000000" transform="translate(332,291)"/>
<path d="M0 0 C2 1 2 1 2 1 Z " fill="#000000" transform="translate(268,288)"/>
<path d="M0 0 C2 1 2 1 2 1 Z " fill="#000000" transform="translate(270,287)"/>
<path d="" fill="#000000" transform="translate(0,0)"/>
<path d="" fill="#000000" transform="translate(0,0)"/>
<path d="" fill="#000000" transform="translate(0,0)"/>
<path d="" fill="#000000" transform="translate(0,0)"/>
<path d="M0 0 C2 1 2 1 2 1 Z " fill="#000000" transform="translate(269,225)"/>
<path d="M0 0 C2 1 2 1 2 1 Z " fill="#000000" transform="translate(239,225)"/>
<path d="M0 0 C2 1 2 1 2 1 Z " fill="#000000" transform="translate(267,224)"/>
<path d="M0 0 C2 1 2 1 2 1 Z " fill="#000000" transform="translate(241,224)"/>
<path d="M0 0 C2 1 2 1 2 1 Z " fill="#000000" transform="translate(265,223)"/>
<path d="M0 0 C2 1 2 1 2 1 Z " fill="#000000" transform="translate(243,223)"/>
<path d="M0 0 C2 1 2 1 2 1 Z " fill="#000000" transform="translate(304,222)"/>
<path d="M0 0 C2 1 2 1 2 1 Z " fill="#000000" transform="translate(262,222)"/>
<path d="M0 0 C2 1 2 1 2 1 Z " fill="#000000" transform="translate(204,222)"/>
<path d="M0 0 C2 1 2 1 2 1 Z " fill="#000000" transform="translate(177,222)"/>
<path d="M0 0 C2 1 2 1 2 1 Z " fill="#000000" transform="translate(333,221)"/>
<path d="M0 0 C2 1 2 1 2 1 Z " fill="#000000" transform="translate(302,221)"/>
<path d="M0 0 C2 1 2 1 2 1 Z " fill="#000000" transform="translate(206,221)"/>
<path d="M0 0 C2 1 2 1 2 1 Z " fill="#000000" transform="translate(175,221)"/>
<path d="" fill="#000000" transform="translate(0,0)"/>
<path d="" fill="#000000" transform="translate(0,0)"/>
<path d="" fill="#000000" transform="translate(0,0)"/>
<path d="" fill="#000000" transform="translate(0,0)"/>
<path d="" fill="#000000" transform="translate(0,0)"/>
<path d="" fill="#000000" transform="translate(0,0)"/>
<path d="" fill="#000000" transform="translate(0,0)"/>
<path d="" fill="#000000" transform="translate(0,0)"/>
<path d="" fill="#000000" transform="translate(0,0)"/>
<path d="M0 0 C2 1 2 1 2 1 Z " fill="#000000" transform="translate(82,31)"/>
<path d="M0 0 C2 1 2 1 2 1 Z " fill="#000000" transform="translate(459,30)"/>
<path d="M0 0 C2 1 2 1 2 1 Z " fill="#000000" transform="translate(457,29)"/>
<path d="M0 0 C2 1 2 1 2 1 Z " fill="#000000" transform="translate(79,29)"/>
<path d="M0 0 C2 1 2 1 2 1 Z " fill="#000000" transform="translate(51,29)"/>
<path d="M0 0 C2 1 2 1 2 1 Z " fill="#000000" transform="translate(455,28)"/>
<path d="M0 0 C2 1 2 1 2 1 Z " fill="#000000" transform="translate(432,28)"/>
<path d="M0 0 C2 1 2 1 2 1 Z " fill="#000000" transform="translate(77,28)"/>
<path d="M0 0 C2 1 2 1 2 1 Z " fill="#000000" transform="translate(53,28)"/>
<path d="" fill="#000000" transform="translate(0,0)"/>
<path d="" fill="#000000" transform="translate(0,0)"/>
<path d="" fill="#000000" transform="translate(0,0)"/>
<path d="" fill="#000000" transform="translate(0,0)"/>
<path d="" fill="#000000" transform="translate(0,0)"/>
<path d="" fill="#000000" transform="translate(0,0)"/>
<path d="" fill="#000000" transform="translate(0,0)"/>
<path d="" fill="#000000" transform="translate(0,0)"/>
<path d="" fill="#000000" transform="translate(0,0)"/>
<path d="" fill="#000000" transform="translate(0,0)"/>
<path d="" fill="#000000" transform="translate(0,0)"/>
<path d="" fill="#000000" transform="translate(0,0)"/>
<path d="" fill="#000000" transform="translate(0,0)"/>
<path d="" fill="#000000" transform="translate(0,0)"/>
<path d="" fill="#000000" transform="translate(0,0)"/>
<path d="" fill="#000000" transform="translate(0,0)"/>
<path d="" fill="#000000" transform="translate(0,0)"/>
<path d="" fill="#000000" transform="translate(0,0)"/>
<path d="" fill="#000000" transform="translate(0,0)"/>
<path d="" fill="#000000" transform="translate(0,0)"/>
<path d="" fill="#000000" transform="translate(0,0)"/>
<path d="" fill="#000000" transform="translate(0,0)"/>
<path d="" fill="#000000" transform="translate(0,0)"/>
<path d="" fill="#000000" transform="translate(0,0)"/>
<path d="" fill="#000000" transform="translate(0,0)"/>
<path d="" fill="#000000" transform="translate(0,0)"/>
<path d="" fill="#000000" transform="translate(0,0)"/>
<path d="" fill="#000000" transform="translate(0,0)"/>
<path d="" fill="#000000" transform="translate(0,0)"/>
<path d="" fill="#000000" transform="translate(0,0)"/>
<path d="" fill="#000000" transform="translate(0,0)"/>
<path d="" fill="#000000" transform="translate(0,0)"/>
<path d="" fill="#000000" transform="translate(0,0)"/>
<path d="" fill="#000000" transform="translate(0,0)"/>
<path d="" fill="#000000" transform="translate(0,0)"/>
<path d="" fill="#000000" transform="translate(0,0)"/>
<path d="" fill="#000000" transform="translate(0,0)"/>
<path d="" fill="#000000" transform="translate(0,0)"/>
<path d="" fill="#000000" transform="translate(0,0)"/>
<path d="" fill="#000000" transform="translate(0,0)"/>
<path d="" fill="#000000" transform="translate(0,0)"/>
<path d="" fill="#000000" transform="translate(0,0)"/>
<path d="" fill="#000000" transform="translate(0,0)"/>
<path d="" fill="#000000" transform="translate(0,0)"/>
<path d="" fill="#000000" transform="translate(0,0)"/>
<path d="" fill="#000000" transform="translate(0,0)"/>
<path d="" fill="#000000" transform="translate(0,0)"/>
<path d="" fill="#000000" transform="translate(0,0)"/>
<path d="" fill="#000000" transform="translate(0,0)"/>
<path d="" fill="#000000" transform="translate(0,0)"/>
<path d="" fill="#000000" transform="translate(0,0)"/>
<path d="" fill="#000000" transform="translate(0,0)"/>
<path d="" fill="#000000" transform="translate(0,0)"/>
<path d="" fill="#000000" transform="translate(0,0)"/>
<path d="" fill="#000000" transform="translate(0,0)"/>
<path d="" fill="#000000" transform="translate(0,0)"/>
<path d="" fill="#000000" transform="translate(0,0)"/>
<path d="" fill="#000000" transform="translate(0,0)"/>
<path d="" fill="#000000" transform="translate(0,0)"/>
<path d="" fill="#000000" transform="translate(0,0)"/>
<path d="" fill="#000000" transform="translate(0,0)"/>
<path d="" fill="#000000" transform="translate(0,0)"/>
<path d="" fill="#000000" transform="translate(0,0)"/>
<path d="" fill="#000000" transform="translate(0,0)"/>
<path d="" fill="#000000" transform="translate(0,0)"/>
<path d="" fill="#000000" transform="translate(0,0)"/>
<path d="" fill="#000000" transform="translate(0,0)"/>
<path d="" fill="#000000" transform="translate(0,0)"/>
<path d="" fill="#000000" transform="translate(0,0)"/>
<path d="" fill="#000000" transform="translate(0,0)"/>
<path d="" fill="#000000" transform="translate(0,0)"/>
<path d="" fill="#000000" transform="translate(0,0)"/>
<path d="" fill="#000000" transform="translate(0,0)"/>
<path d="" fill="#000000" transform="translate(0,0)"/>
<path d="" fill="#000000" transform="translate(0,0)"/>
<path d="" fill="#000000" transform="translate(0,0)"/>
<path d="" fill="#000000" transform="translate(0,0)"/>
<path d="" fill="#000000" transform="translate(0,0)"/>
<path d="" fill="#000000" transform="translate(0,0)"/>
<path d="" fill="#000000" transform="translate(0,0)"/>
<path d="" fill="#000000" transform="translate(0,0)"/>
<path d="" fill="#000000" transform="translate(0,0)"/>
<path d="" fill="#000000" transform="translate(0,0)"/>
<path d="" fill="#000000" transform="translate(0,0)"/>
<path d="" fill="#000000" transform="translate(0,0)"/>
<path d="" fill="#000000" transform="translate(0,0)"/>
<path d="" fill="#000000" transform="translate(0,0)"/>
<path d="" fill="#000000" transform="translate(0,0)"/>
<path d="" fill="#000000" transform="translate(0,0)"/>
<path d="" fill="#000000" transform="translate(0,0)"/>
<path d="" fill="#000000" transform="translate(0,0)"/>
<path d="" fill="#000000" transform="translate(0,0)"/>
<path d="" fill="#000000" transform="translate(0,0)"/>
<path d="" fill="#000000" transform="translate(0,0)"/>
<path d="" fill="#000000" transform="translate(0,0)"/>
<path d="" fill="#000000" transform="translate(0,0)"/>
<path d="" fill="#000000" transform="translate(0,0)"/>
<path d="" fill="#000000" transform="translate(0,0)"/>
<path d="" fill="#000000" transform="translate(0,0)"/>
<path d="" fill="#000000" transform="translate(0,0)"/>
<path d="" fill="#000000" transform="translate(0,0)"/>
<path d="" fill="#000000" transform="translate(0,0)"/>
<path d="" fill="#000000" transform="translate(0,0)"/>
<path d="" fill="#000000" transform="translate(0,0)"/>
<path d="" fill="#000000" transform="translate(0,0)"/>
<path d="" fill="#000000" transform="translate(0,0)"/>
<path d="" fill="#000000" transform="translate(0,0)"/>
<path d="" fill="#000000" transform="translate(0,0)"/>
<path d="" fill="#000000" transform="translate(0,0)"/>
<path d="" fill="#000000" transform="translate(0,0)"/>
<path d="" fill="#000000" transform="translate(0,0)"/>
<path d="" fill="#000000" transform="translate(0,0)"/>
<path d="" fill="#000000" transform="translate(0,0)"/>
<path d="" fill="#000000" transform="translate(0,0)"/>
<path d="" fill="#000000" transform="translate(0,0)"/>
<path d="" fill="#000000" transform="translate(0,0)"/>
<path d="" fill="#000000" transform="translate(0,0)"/>
<path d="" fill="#000000" transform="translate(0,0)"/>
<path d="" fill="#000000" transform="translate(0,0)"/>
<path d="" fill="#000000" transform="translate(0,0)"/>
<path d="" fill="#000000" transform="translate(0,0)"/>
<path d="" fill="#000000" transform="translate(0,0)"/>
<path d="" fill="#000000" transform="translate(0,0)"/>
<path d="" fill="#000000" transform="translate(0,0)"/>
<path d="" fill="#000000" transform="translate(0,0)"/>
<path d="" fill="#000000" transform="translate(0,0)"/>
<path d="" fill="#000000" transform="translate(0,0)"/>
<path d="" fill="#000000" transform="translate(0,0)"/>
<path d="" fill="#000000" transform="translate(0,0)"/>
<path d="" fill="#000000" transform="translate(0,0)"/>
<path d="" fill="#000000" transform="translate(0,0)"/>
<path d="" fill="#000000" transform="translate(0,0)"/>
<path d="" fill="#000000" transform="translate(0,0)"/>
<path d="" fill="#000000" transform="translate(0,0)"/>
<path d="" fill="#000000" transform="translate(0,0)"/>
<path d="" fill="#000000" transform="translate(0,0)"/>
<path d="" fill="#000000" transform="translate(0,0)"/>
<path d="" fill="#000000" transform="translate(0,0)"/>
<path d="" fill="#000000" transform="translate(0,0)"/>
<path d="" fill="#000000" transform="translate(0,0)"/>
<path d="" fill="#000000" transform="translate(0,0)"/>
<path d="" fill="#000000" transform="translate(0,0)"/>
<path d="" fill="#000000" transform="translate(0,0)"/>
<path d="" fill="#000000" transform="translate(0,0)"/>
<path d="" fill="#000000" transform="translate(0,0)"/>
<path d="" fill="#000000" transform="translate(0,0)"/>
<path d="" fill="#000000" transform="translate(0,0)"/>
<path d="" fill="#000000" transform="translate(0,0)"/>
<path d="" fill="#000000" transform="translate(0,0)"/>
<path d="" fill="#000000" transform="translate(0,0)"/>
<path d="" fill="#000000" transform="translate(0,0)"/>
<path d="" fill="#000000" transform="translate(0,0)"/>
<path d="" fill="#000000" transform="translate(0,0)"/>
<path d="" fill="#000000" transform="translate(0,0)"/>
<path d="" fill="#000000" transform="translate(0,0)"/>
<path d="" fill="#000000" transform="translate(0,0)"/>
<path d="" fill="#000000" transform="translate(0,0)"/>
<path d="" fill="#000000" transform="translate(0,0)"/>
<path d="" fill="#000000" transform="translate(0,0)"/>
<path d="" fill="#000000" transform="translate(0,0)"/>
<path d="" fill="#000000" transform="translate(0,0)"/>
<path d="" fill="#000000" transform="translate(0,0)"/>
<path d="" fill="#000000" transform="translate(0,0)"/>
<path d="" fill="#000000" transform="translate(0,0)"/>
<path d="" fill="#000000" transform="translate(0,0)"/>
<path d="" fill="#000000" transform="translate(0,0)"/>
<path d="" fill="#000000" transform="translate(0,0)"/>
<path d="" fill="#000000" transform="translate(0,0)"/>
<path d="" fill="#000000" transform="translate(0,0)"/>
<path d="" fill="#000000" transform="translate(0,0)"/>
<path d="" fill="#000000" transform="translate(0,0)"/>
<path d="" fill="#000000" transform="translate(0,0)"/>
<path d="" fill="#000000" transform="translate(0,0)"/>
<path d="" fill="#000000" transform="translate(0,0)"/>
<path d="" fill="#000000" transform="translate(0,0)"/>
<path d="" fill="#000000" transform="translate(0,0)"/>
<path d="" fill="#000000" transform="translate(0,0)"/>
<path d="" fill="#000000" transform="translate(0,0)"/>
<path d="" fill="#000000" transform="translate(0,0)"/>
<path d="" fill="#000000" transform="translate(0,0)"/>
<path d="" fill="#000000" transform="translate(0,0)"/>
<path d="" fill="#000000" transform="translate(0,0)"/>
<path d="" fill="#000000" transform="translate(0,0)"/>
<path d="" fill="#000000" transform="translate(0,0)"/>
<path d="" fill="#000000" transform="translate(0,0)"/>
<path d="" fill="#000000" transform="translate(0,0)"/>
<path d="" fill="#000000" transform="translate(0,0)"/>
<path d="" fill="#000000" transform="translate(0,0)"/>
<path d="" fill="#000000" transform="translate(0,0)"/>
<path d="" fill="#000000" transform="translate(0,0)"/>
<path d="" fill="#000000" transform="translate(0,0)"/>
<path d="" fill="#000000" transform="translate(0,0)"/>
<path d="" fill="#000000" transform="translate(0,0)"/>
<path d="" fill="#000000" transform="translate(0,0)"/>
<path d="" fill="#000000" transform="translate(0,0)"/>
<path d="" fill="#000000" transform="translate(0,0)"/>
<path d="" fill="#000000" transform="translate(0,0)"/>
<path d="" fill="#000000" transform="translate(0,0)"/>
<path d="" fill="#000000" transform="translate(0,0)"/>
<path d="" fill="#000000" transform="translate(0,0)"/>
<path d="" fill="#000000" transform="translate(0,0)"/>
<path d="" fill="#000000" transform="translate(0,0)"/>
<path d="" fill="#000000" transform="translate(0,0)"/>
<path d="" fill="#000000" transform="translate(0,0)"/>
<path d="" fill="#000000" transform="translate(0,0)"/>
<path d="" fill="#000000" transform="translate(0,0)"/>
<path d="" fill="#000000" transform="translate(0,0)"/>
<path d="" fill="#000000" transform="translate(0,0)"/>
<path d="" fill="#000000" transform="translate(0,0)"/>
<path d="" fill="#000000" transform="translate(0,0)"/>
<path d="" fill="#000000" transform="translate(0,0)"/>
<path d="" fill="#000000" transform="translate(0,0)"/>
<path d="" fill="#000000" transform="translate(0,0)"/>
<path d="" fill="#000000" transform="translate(0,0)"/>
<path d="" fill="#000000" transform="translate(0,0)"/>
<path d="" fill="#000000" transform="translate(0,0)"/>
<path d="" fill="#000000" transform="translate(0,0)"/>
<path d="" fill="#000000" transform="translate(0,0)"/>
<path d="" fill="#000000" transform="translate(0,0)"/>
<path d="" fill="#000000" transform="translate(0,0)"/>
<path d="" fill="#000000" transform="translate(0,0)"/>
<path d="" fill="#000000" transform="translate(0,0)"/>
<path d="" fill="#000000" transform="translate(0,0)"/>
<path d="" fill="#000000" transform="translate(0,0)"/>
<path d="" fill="#000000" transform="translate(0,0)"/>
<path d="" fill="#000000" transform="translate(0,0)"/>
<path d="" fill="#000000" transform="translate(0,0)"/>
<path d="" fill="#000000" transform="translate(0,0)"/>
<path d="" fill="#000000" transform="translate(0,0)"/>
<path d="" fill="#000000" transform="translate(0,0)"/>
<path d="" fill="#000000" transform="translate(0,0)"/>
<path d="" fill="#000000" transform="translate(0,0)"/>
<path d="" fill="#000000" transform="translate(0,0)"/>
<path d="" fill="#000000" transform="translate(0,0)"/>
<path d="" fill="#000000" transform="translate(0,0)"/>
<path d="" fill="#000000" transform="translate(0,0)"/>
<path d="" fill="#000000" transform="translate(0,0)"/>
<path d="" fill="#000000" transform="translate(0,0)"/>
<path d="" fill="#000000" transform="translate(0,0)"/>
<path d="" fill="#000000" transform="translate(0,0)"/>
<path d="" fill="#000000" transform="translate(0,0)"/>
<path d="" fill="#000000" transform="translate(0,0)"/>
<path d="" fill="#000000" transform="translate(0,0)"/>
<path d="" fill="#000000" transform="translate(0,0)"/>
<path d="" fill="#000000" transform="translate(0,0)"/>
<path d="" fill="#000000" transform="translate(0,0)"/>
<path d="" fill="#000000" transform="translate(0,0)"/>
<path d="" fill="#000000" transform="translate(0,0)"/>
<path d="" fill="#000000" transform="translate(0,0)"/>
<path d="" fill="#000000" transform="translate(0,0)"/>
<path d="" fill="#000000" transform="translate(0,0)"/>
<path d="" fill="#000000" transform="translate(0,0)"/>
<path d="" fill="#000000" transform="translate(0,0)"/>
<path d="" fill="#000000" transform="translate(0,0)"/>
<path d="" fill="#000000" transform="translate(0,0)"/>
<path d="" fill="#000000" transform="translate(0,0)"/>
<path d="" fill="#000000" transform="translate(0,0)"/>
<path d="" fill="#000000" transform="translate(0,0)"/>
<path d="" fill="#000000" transform="translate(0,0)"/>
<path d="" fill="#000000" transform="translate(0,0)"/>
<path d="" fill="#000000" transform="translate(0,0)"/>
<path d="" fill="#000000" transform="translate(0,0)"/>
<path d="" fill="#000000" transform="translate(0,0)"/>
<path d="" fill="#000000" transform="translate(0,0)"/>
<path d="" fill="#000000" transform="translate(0,0)"/>
<path d="" fill="#000000" transform="translate(0,0)"/>
<path d="" fill="#000000" transform="translate(0,0)"/>
<path d="" fill="#000000" transform="translate(0,0)"/>
<path d="" fill="#000000" transform="translate(0,0)"/>
<path d="" fill="#000000" transform="translate(0,0)"/>
<path d="" fill="#000000" transform="translate(0,0)"/>
<path d="" fill="#000000" transform="translate(0,0)"/>
<path d="" fill="#000000" transform="translate(0,0)"/>
<path d="" fill="#000000" transform="translate(0,0)"/>
<path d="" fill="#000000" transform="translate(0,0)"/>
<path d="" fill="#000000" transform="translate(0,0)"/>
<path d="" fill="#000000" transform="translate(0,0)"/>
<path d="" fill="#000000" transform="translate(0,0)"/>
<path d="" fill="#000000" transform="translate(0,0)"/>
<path d="" fill="#000000" transform="translate(0,0)"/>
<path d="" fill="#000000" transform="translate(0,0)"/>
<path d="" fill="#000000" transform="translate(0,0)"/>
<path d="" fill="#000000" transform="translate(0,0)"/>
<path d="" fill="#000000" transform="translate(0,0)"/>
<path d="" fill="#000000" transform="translate(0,0)"/>
<path d="" fill="#000000" transform="translate(0,0)"/>
<path d="" fill="#000000" transform="translate(0,0)"/>
<path d="" fill="#000000" transform="translate(0,0)"/>
<path d="" fill="#000000" transform="translate(0,0)"/>
<path d="" fill="#000000" transform="translate(0,0)"/>
<path d="" fill="#000000" transform="translate(0,0)"/>
<path d="" fill="#000000" transform="translate(0,0)"/>
<path d="" fill="#000000" transform="translate(0,0)"/>
<path d="" fill="#000000" transform="translate(0,0)"/>
<path d="" fill="#000000" transform="translate(0,0)"/>
<path d="" fill="#000000" transform="translate(0,0)"/>
<path d="" fill="#000000" transform="translate(0,0)"/>
<path d="" fill="#000000" transform="translate(0,0)"/>
<path d="" fill="#000000" transform="translate(0,0)"/>
<path d="" fill="#000000" transform="translate(0,0)"/>
<path d="" fill="#000000" transform="translate(0,0)"/>
<path d="" fill="#000000" transform="translate(0,0)"/>
<path d="" fill="#000000" transform="translate(0,0)"/>
<path d="" fill="#000000" transform="translate(0,0)"/>
<path d="" fill="#000000" transform="translate(0,0)"/>
<path d="" fill="#000000" transform="translate(0,0)"/>
<path d="" fill="#000000" transform="translate(0,0)"/>
<path d="" fill="#000000" transform="translate(0,0)"/>
<path d="" fill="#000000" transform="translate(0,0)"/>
<path d="" fill="#000000" transform="translate(0,0)"/>
<path d="" fill="#000000" transform="translate(0,0)"/>
<path d="" fill="#000000" transform="translate(0,0)"/>
<path d="" fill="#000000" transform="translate(0,0)"/>
<path d="" fill="#000000" transform="translate(0,0)"/>
<path d="" fill="#000000" transform="translate(0,0)"/>
<path d="" fill="#000000" transform="translate(0,0)"/>
<path d="" fill="#000000" transform="translate(0,0)"/>
<path d="" fill="#000000" transform="translate(0,0)"/>
<path d="" fill="#000000" transform="translate(0,0)"/>
<path d="" fill="#000000" transform="translate(0,0)"/>
<path d="" fill="#000000" transform="translate(0,0)"/>
<path d="" fill="#000000" transform="translate(0,0)"/>
<path d="" fill="#000000" transform="translate(0,0)"/>
<path d="" fill="#000000" transform="translate(0,0)"/>
<path d="" fill="#000000" transform="translate(0,0)"/>
<path d="" fill="#000000" transform="translate(0,0)"/>
<path d="" fill="#000000" transform="translate(0,0)"/>
<path d="" fill="#000000" transform="translate(0,0)"/>
<path d="" fill="#000000" transform="translate(0,0)"/>
<path d="" fill="#000000" transform="translate(0,0)"/>
<path d="" fill="#000000" transform="translate(0,0)"/>
<path d="" fill="#000000" transform="translate(0,0)"/>
<path d="" fill="#000000" transform="translate(0,0)"/>
<path d="" fill="#000000" transform="translate(0,0)"/>
<path d="" fill="#000000" transform="translate(0,0)"/>
<path d="" fill="#000000" transform="translate(0,0)"/>
<path d="" fill="#000000" transform="translate(0,0)"/>
<path d="" fill="#000000" transform="translate(0,0)"/>
<path d="" fill="#000000" transform="translate(0,0)"/>
<path d="" fill="#000000" transform="translate(0,0)"/>
<path d="" fill="#000000" transform="translate(0,0)"/>
<path d="" fill="#000000" transform="translate(0,0)"/>
<path d="" fill="#000000" transform="translate(0,0)"/>
<path d="" fill="#000000" transform="translate(0,0)"/>
<path d="" fill="#000000" transform="translate(0,0)"/>
<path d="" fill="#000000" transform="translate(0,0)"/>
<path d="" fill="#000000" transform="translate(0,0)"/>
<path d="" fill="#000000" transform="translate(0,0)"/>
<path d="" fill="#000000" transform="translate(0,0)"/>
<path d="" fill="#000000" transform="translate(0,0)"/>
<path d="" fill="#000000" transform="translate(0,0)"/>
<path d="" fill="#000000" transform="translate(0,0)"/>
<path d="" fill="#000000" transform="translate(0,0)"/>
<path d="" fill="#000000" transform="translate(0,0)"/>
<path d="" fill="#000000" transform="translate(0,0)"/>
<path d="" fill="#000000" transform="translate(0,0)"/>
<path d="" fill="#000000" transform="translate(0,0)"/>
<path d="" fill="#000000" transform="translate(0,0)"/>
<path d="" fill="#000000" transform="translate(0,0)"/>
<path d="" fill="#000000" transform="translate(0,0)"/>
<path d="" fill="#000000" transform="translate(0,0)"/>
<path d="" fill="#000000" transform="translate(0,0)"/>
<path d="" fill="#000000" transform="translate(0,0)"/>
<path d="" fill="#000000" transform="translate(0,0)"/>
<path d="" fill="#000000" transform="translate(0,0)"/>
<path d="" fill="#000000" transform="translate(0,0)"/>
<path d="" fill="#000000" transform="translate(0,0)"/>
<path d="" fill="#000000" transform="translate(0,0)"/>
<path d="" fill="#000000" transform="translate(0,0)"/>
<path d="" fill="#000000" transform="translate(0,0)"/>
<path d="" fill="#000000" transform="translate(0,0)"/>
<path d="" fill="#000000" transform="translate(0,0)"/>
<path d="" fill="#000000" transform="translate(0,0)"/>
<path d="" fill="#000000" transform="translate(0,0)"/>
<path d="" fill="#000000" transform="translate(0,0)"/>
<path d="" fill="#000000" transform="translate(0,0)"/>
<path d="" fill="#000000" transform="translate(0,0)"/>
<path d="" fill="#000000" transform="translate(0,0)"/>
<path d="" fill="#000000" transform="translate(0,0)"/>
<path d="" fill="#000000" transform="translate(0,0)"/>
<path d="" fill="#000000" transform="translate(0,0)"/>
<path d="" fill="#000000" transform="translate(0,0)"/>
<path d="" fill="#000000" transform="translate(0,0)"/>
<path d="" fill="#000000" transform="translate(0,0)"/>
<path d="" fill="#000000" transform="translate(0,0)"/>
<path d="" fill="#000000" transform="translate(0,0)"/>
<path d="" fill="#000000" transform="translate(0,0)"/>
<path d="" fill="#000000" transform="translate(0,0)"/>
<path d="" fill="#000000" transform="translate(0,0)"/>
<path d="" fill="#000000" transform="translate(0,0)"/>
<path d="" fill="#000000" transform="translate(0,0)"/>
<path d="" fill="#000000" transform="translate(0,0)"/>
<path d="" fill="#000000" transform="translate(0,0)"/>
<path d="" fill="#000000" transform="translate(0,0)"/>
<path d="" fill="#000000" transform="translate(0,0)"/>
<path d="" fill="#000000" transform="translate(0,0)"/>
<path d="" fill="#000000" transform="translate(0,0)"/>
<path d="" fill="#000000" transform="translate(0,0)"/>
<path d="" fill="#000000" transform="translate(0,0)"/>
<path d="" fill="#000000" transform="translate(0,0)"/>
<path d="" fill="#000000" transform="translate(0,0)"/>
<path d="" fill="#000000" transform="translate(0,0)"/>
<path d="" fill="#000000" transform="translate(0,0)"/>
<path d="" fill="#000000" transform="translate(0,0)"/>
<path d="" fill="#000000" transform="translate(0,0)"/>
<path d="" fill="#000000" transform="translate(0,0)"/>
<path d="" fill="#000000" transform="translate(0,0)"/>
<path d="" fill="#000000" transform="translate(0,0)"/>
<path d="" fill="#000000" transform="translate(0,0)"/>
<path d="" fill="#000000" transform="translate(0,0)"/>
<path d="" fill="#000000" transform="translate(0,0)"/>
<path d="" fill="#000000" transform="translate(0,0)"/>
<path d="" fill="#000000" transform="translate(0,0)"/>
<path d="" fill="#000000" transform="translate(0,0)"/>
<path d="" fill="#000000" transform="translate(0,0)"/>
<path d="" fill="#000000" transform="translate(0,0)"/>
<path d="" fill="#000000" transform="translate(0,0)"/>
<path d="" fill="#000000" transform="translate(0,0)"/>
<path d="" fill="#000000" transform="translate(0,0)"/>
<path d="" fill="#000000" transform="translate(0,0)"/>
<path d="" fill="#000000" transform="translate(0,0)"/>
<path d="" fill="#000000" transform="translate(0,0)"/>
<path d="" fill="#000000" transform="translate(0,0)"/>
<path d="" fill="#000000" transform="translate(0,0)"/>
<path d="" fill="#000000" transform="translate(0,0)"/>
<path d="" fill="#000000" transform="translate(0,0)"/>
<path d="" fill="#000000" transform="translate(0,0)"/>
<path d="" fill="#000000" transform="translate(0,0)"/>
<path d="" fill="#000000" transform="translate(0,0)"/>
<path d="" fill="#000000" transform="translate(0,0)"/>
<path d="" fill="#000000" transform="translate(0,0)"/>
<path d="" fill="#000000" transform="translate(0,0)"/>
<path d="" fill="#000000" transform="translate(0,0)"/>
<path d="" fill="#000000" transform="translate(0,0)"/>
<path d="" fill="#000000" transform="translate(0,0)"/>
<path d="" fill="#000000" transform="translate(0,0)"/>
<path d="" fill="#000000" transform="translate(0,0)"/>
<path d="" fill="#000000" transform="translate(0,0)"/>
<path d="" fill="#000000" transform="translate(0,0)"/>
<path d="" fill="#000000" transform="translate(0,0)"/>
<path d="" fill="#000000" transform="translate(0,0)"/>
<path d="" fill="#000000" transform="translate(0,0)"/>
<path d="" fill="#000000" transform="translate(0,0)"/>
<path d="" fill="#000000" transform="translate(0,0)"/>
<path d="" fill="#000000" transform="translate(0,0)"/>
<path d="" fill="#000000" transform="translate(0,0)"/>
<path d="" fill="#000000" transform="translate(0,0)"/>
<path d="" fill="#000000" transform="translate(0,0)"/>
<path d="" fill="#000000" transform="translate(0,0)"/>
<path d="" fill="#000000" transform="translate(0,0)"/>
<path d="" fill="#000000" transform="translate(0,0)"/>
<path d="" fill="#000000" transform="translate(0,0)"/>
<path d="" fill="#000000" transform="translate(0,0)"/>
<path d="" fill="#000000" transform="translate(0,0)"/>
<path d="" fill="#000000" transform="translate(0,0)"/>
<path d="" fill="#000000" transform="translate(0,0)"/>
<path d="" fill="#000000" transform="translate(0,0)"/>
<path d="" fill="#000000" transform="translate(0,0)"/>
<path d="" fill="#000000" transform="translate(0,0)"/>
<path d="" fill="#000000" transform="translate(0,0)"/>
<path d="" fill="#000000" transform="translate(0,0)"/>
<path d="" fill="#000000" transform="translate(0,0)"/>
<path d="" fill="#000000" transform="translate(0,0)"/>
<path d="" fill="#000000" transform="translate(0,0)"/>
<path d="" fill="#000000" transform="translate(0,0)"/>
<path d="" fill="#000000" transform="translate(0,0)"/>
<path d="" fill="#000000" transform="translate(0,0)"/>
<path d="" fill="#000000" transform="translate(0,0)"/>
<path d="" fill="#000000" transform="translate(0,0)"/>
<path d="" fill="#000000" transform="translate(0,0)"/>
<path d="" fill="#000000" transform="translate(0,0)"/>
<path d="" fill="#000000" transform="translate(0,0)"/>
<path d="" fill="#000000" transform="translate(0,0)"/>
<path d="" fill="#000000" transform="translate(0,0)"/>
<path d="" fill="#000000" transform="translate(0,0)"/>
<path d="" fill="#000000" transform="translate(0,0)"/>
<path d="" fill="#000000" transform="translate(0,0)"/>
<path d="" fill="#000000" transform="translate(0,0)"/>
<path d="" fill="#000000" transform="translate(0,0)"/>
<path d="" fill="#000000" transform="translate(0,0)"/>
<path d="" fill="#000000" transform="translate(0,0)"/>
<path d="" fill="#000000" transform="translate(0,0)"/>
<path d="" fill="#000000" transform="translate(0,0)"/>
<path d="" fill="#000000" transform="translate(0,0)"/>
<path d="" fill="#000000" transform="translate(0,0)"/>
<path d="" fill="#000000" transform="translate(0,0)"/>
<path d="" fill="#000000" transform="translate(0,0)"/>
<path d="" fill="#000000" transform="translate(0,0)"/>
<path d="" fill="#000000" transform="translate(0,0)"/>
<path d="" fill="#000000" transform="translate(0,0)"/>
<path d="" fill="#000000" transform="translate(0,0)"/>
<path d="" fill="#000000" transform="translate(0,0)"/>
<path d="" fill="#000000" transform="translate(0,0)"/>
<path d="" fill="#000000" transform="translate(0,0)"/>
<path d="" fill="#000000" transform="translate(0,0)"/>
<path d="" fill="#000000" transform="translate(0,0)"/>
<path d="" fill="#000000" transform="translate(0,0)"/>
<path d="" fill="#000000" transform="translate(0,0)"/>
<path d="" fill="#000000" transform="translate(0,0)"/>
<path d="" fill="#000000" transform="translate(0,0)"/>
<path d="" fill="#000000" transform="translate(0,0)"/>
<path d="" fill="#000000" transform="translate(0,0)"/>
<path d="" fill="#000000" transform="translate(0,0)"/>
<path d="" fill="#000000" transform="translate(0,0)"/>
<path d="" fill="#000000" transform="translate(0,0)"/>
<path d="" fill="#000000" transform="translate(0,0)"/>
<path d="" fill="#000000" transform="translate(0,0)"/>
<path d="" fill="#000000" transform="translate(0,0)"/>
<path d="" fill="#000000" transform="translate(0,0)"/>
<path d="" fill="#000000" transform="translate(0,0)"/>
<path d="" fill="#000000" transform="translate(0,0)"/>
<path d="" fill="#000000" transform="translate(0,0)"/>
<path d="" fill="#000000" transform="translate(0,0)"/>
<path d="" fill="#000000" transform="translate(0,0)"/>
<path d="" fill="#000000" transform="translate(0,0)"/>
<path d="" fill="#000000" transform="translate(0,0)"/>
<path d="" fill="#000000" transform="translate(0,0)"/>
<path d="" fill="#000000" transform="translate(0,0)"/>
<path d="" fill="#000000" transform="translate(0,0)"/>
<path d="" fill="#000000" transform="translate(0,0)"/>
<path d="" fill="#000000" transform="translate(0,0)"/>
<path d="" fill="#000000" transform="translate(0,0)"/>
<path d="" fill="#000000" transform="translate(0,0)"/>
<path d="" fill="#000000" transform="translate(0,0)"/>
<path d="" fill="#000000" transform="translate(0,0)"/>
<path d="" fill="#000000" transform="translate(0,0)"/>
<path d="" fill="#000000" transform="translate(0,0)"/>
<path d="" fill="#000000" transform="translate(0,0)"/>
<path d="" fill="#000000" transform="translate(0,0)"/>
<path d="" fill="#000000" transform="translate(0,0)"/>
<path d="" fill="#000000" transform="translate(0,0)"/>
<path d="" fill="#000000" transform="translate(0,0)"/>
<path d="" fill="#000000" transform="translate(0,0)"/>
<path d="" fill="#000000" transform="translate(0,0)"/>
<path d="" fill="#000000" transform="translate(0,0)"/>
<path d="" fill="#000000" transform="translate(0,0)"/>
<path d="" fill="#000000" transform="translate(0,0)"/>
<path d="" fill="#000000" transform="translate(0,0)"/>
<path d="" fill="#000000" transform="translate(0,0)"/>
<path d="" fill="#000000" transform="translate(0,0)"/>
<path d="" fill="#000000" transform="translate(0,0)"/>
<path d="" fill="#000000" transform="translate(0,0)"/>
<path d="" fill="#000000" transform="translate(0,0)"/>
<path d="" fill="#000000" transform="translate(0,0)"/>
<path d="" fill="#000000" transform="translate(0,0)"/>
<path d="" fill="#000000" transform="translate(0,0)"/>
<path d="" fill="#000000" transform="translate(0,0)"/>
<path d="" fill="#000000" transform="translate(0,0)"/>
<path d="" fill="#000000" transform="translate(0,0)"/>
<path d="" fill="#000000" transform="translate(0,0)"/>
<path d="" fill="#000000" transform="translate(0,0)"/>
<path d="" fill="#000000" transform="translate(0,0)"/>
<path d="" fill="#000000" transform="translate(0,0)"/>
<path d="" fill="#000000" transform="translate(0,0)"/>
<path d="" fill="#000000" transform="translate(0,0)"/>
<path d="" fill="#000000" transform="translate(0,0)"/>
<path d="" fill="#000000" transform="translate(0,0)"/>
<path d="" fill="#000000" transform="translate(0,0)"/>
<path d="" fill="#000000" transform="translate(0,0)"/>
<path d="" fill="#000000" transform="translate(0,0)"/>
<path d="" fill="#000000" transform="translate(0,0)"/>
<path d="" fill="#000000" transform="translate(0,0)"/>
<path d="" fill="#000000" transform="translate(0,0)"/>
<path d="" fill="#000000" transform="translate(0,0)"/>
<path d="" fill="#000000" transform="translate(0,0)"/>
<path d="" fill="#000000" transform="translate(0,0)"/>
<path d="" fill="#000000" transform="translate(0,0)"/>
<path d="" fill="#000000" transform="translate(0,0)"/>
<path d="" fill="#000000" transform="translate(0,0)"/>
<path d="" fill="#000000" transform="translate(0,0)"/>
<path d="" fill="#000000" transform="translate(0,0)"/>
<path d="" fill="#000000" transform="translate(0,0)"/>
<path d="" fill="#000000" transform="translate(0,0)"/>
<path d="" fill="#000000" transform="translate(0,0)"/>
<path d="" fill="#000000" transform="translate(0,0)"/>
<path d="" fill="#000000" transform="translate(0,0)"/>
<path d="" fill="#000000" transform="translate(0,0)"/>
<path d="" fill="#000000" transform="translate(0,0)"/>
<path d="" fill="#000000" transform="translate(0,0)"/>
<path d="" fill="#000000" transform="translate(0,0)"/>
<path d="" fill="#000000" transform="translate(0,0)"/>
<path d="" fill="#000000" transform="translate(0,0)"/>
<path d="" fill="#000000" transform="translate(0,0)"/>
<path d="" fill="#000000" transform="translate(0,0)"/>
<path d="" fill="#000000" transform="translate(0,0)"/>
<path d="" fill="#000000" transform="translate(0,0)"/>
<path d="" fill="#000000" transform="translate(0,0)"/>
<path d="" fill="#000000" transform="translate(0,0)"/>
<path d="" fill="#000000" transform="translate(0,0)"/>
<path d="" fill="#000000" transform="translate(0,0)"/>
<path d="" fill="#000000" transform="translate(0,0)"/>
<path d="" fill="#000000" transform="translate(0,0)"/>
<path d="" fill="#000000" transform="translate(0,0)"/>
<path d="" fill="#000000" transform="translate(0,0)"/>
<path d="" fill="#000000" transform="translate(0,0)"/>
<path d="" fill="#000000" transform="translate(0,0)"/>
<path d="" fill="#000000" transform="translate(0,0)"/>
<path d="" fill="#000000" transform="translate(0,0)"/>
<path d="" fill="#000000" transform="translate(0,0)"/>
<path d="" fill="#000000" transform="translate(0,0)"/>
<path d="" fill="#000000" transform="translate(0,0)"/>
<path d="" fill="#000000" transform="translate(0,0)"/>
<path d="" fill="#000000" transform="translate(0,0)"/>
<path d="" fill="#000000" transform="translate(0,0)"/>
<path d="" fill="#000000" transform="translate(0,0)"/>
<path d="" fill="#000000" transform="translate(0,0)"/>
<path d="" fill="#000000" transform="translate(0,0)"/>
<path d="" fill="#000000" transform="translate(0,0)"/>
<path d="" fill="#000000" transform="translate(0,0)"/>
<path d="" fill="#000000" transform="translate(0,0)"/>
<path d="" fill="#000000" transform="translate(0,0)"/>
<path d="" fill="#000000" transform="translate(0,0)"/>
<path d="" fill="#000000" transform="translate(0,0)"/>
<path d="" fill="#000000" transform="translate(0,0)"/>
<path d="" fill="#000000" transform="translate(0,0)"/>
<path d="" fill="#000000" transform="translate(0,0)"/>
<path d="" fill="#000000" transform="translate(0,0)"/>
<path d="" fill="#000000" transform="translate(0,0)"/>
<path d="" fill="#000000" transform="translate(0,0)"/>
<path d="" fill="#000000" transform="translate(0,0)"/>
<path d="" fill="#000000" transform="translate(0,0)"/>
<path d="" fill="#000000" transform="translate(0,0)"/>
<path d="" fill="#000000" transform="translate(0,0)"/>
<path d="" fill="#000000" transform="translate(0,0)"/>
<path d="" fill="#000000" transform="translate(0,0)"/>
<path d="" fill="#000000" transform="translate(0,0)"/>
<path d="" fill="#000000" transform="translate(0,0)"/>
<path d="" fill="#000000" transform="translate(0,0)"/>
<path d="" fill="#000000" transform="translate(0,0)"/>
<path d="" fill="#000000" transform="translate(0,0)"/>
<path d="" fill="#000000" transform="translate(0,0)"/>
<path d="" fill="#000000" transform="translate(0,0)"/>
<path d="" fill="#000000" transform="translate(0,0)"/>
<path d="" fill="#000000" transform="translate(0,0)"/>
<path d="" fill="#000000" transform="translate(0,0)"/>
<path d="" fill="#000000" transform="translate(0,0)"/>
<path d="" fill="#000000" transform="translate(0,0)"/>
<path d="" fill="#000000" transform="translate(0,0)"/>
<path d="" fill="#000000" transform="translate(0,0)"/>
<path d="" fill="#000000" transform="translate(0,0)"/>
<path d="" fill="#000000" transform="translate(0,0)"/>
<path d="" fill="#000000" transform="translate(0,0)"/>
<path d="" fill="#000000" transform="translate(0,0)"/>
<path d="" fill="#000000" transform="translate(0,0)"/>
<path d="" fill="#000000" transform="translate(0,0)"/>
<path d="" fill="#000000" transform="translate(0,0)"/>
<path d="" fill="#000000" transform="translate(0,0)"/>
<path d="" fill="#000000" transform="translate(0,0)"/>
<path d="" fill="#000000" transform="translate(0,0)"/>
<path d="" fill="#000000" transform="translate(0,0)"/>
<path d="" fill="#000000" transform="translate(0,0)"/>
<path d="" fill="#000000" transform="translate(0,0)"/>
<path d="" fill="#000000" transform="translate(0,0)"/>
<path d="" fill="#000000" transform="translate(0,0)"/>
<path d="" fill="#000000" transform="translate(0,0)"/>
<path d="" fill="#000000" transform="translate(0,0)"/>
<path d="" fill="#000000" transform="translate(0,0)"/>
<path d="" fill="#000000" transform="translate(0,0)"/>
<path d="" fill="#000000" transform="translate(0,0)"/>
<path d="" fill="#000000" transform="translate(0,0)"/>
<path d="" fill="#000000" transform="translate(0,0)"/>
<path d="" fill="#000000" transform="translate(0,0)"/>
<path d="" fill="#000000" transform="translate(0,0)"/>
<path d="" fill="#000000" transform="translate(0,0)"/>
<path d="" fill="#000000" transform="translate(0,0)"/>
<path d="" fill="#000000" transform="translate(0,0)"/>
<path d="" fill="#000000" transform="translate(0,0)"/>
<path d="" fill="#000000" transform="translate(0,0)"/>
<path d="" fill="#000000" transform="translate(0,0)"/>
<path d="" fill="#000000" transform="translate(0,0)"/>
<path d="" fill="#000000" transform="translate(0,0)"/>
<path d="" fill="#000000" transform="translate(0,0)"/>
<path d="" fill="#000000" transform="translate(0,0)"/>
<path d="" fill="#000000" transform="translate(0,0)"/>
<path d="" fill="#000000" transform="translate(0,0)"/>
<path d="" fill="#000000" transform="translate(0,0)"/>
<path d="" fill="#000000" transform="translate(0,0)"/>
<path d="" fill="#000000" transform="translate(0,0)"/>
<path d="" fill="#000000" transform="translate(0,0)"/>
<path d="" fill="#000000" transform="translate(0,0)"/>
<path d="" fill="#000000" transform="translate(0,0)"/>
<path d="" fill="#000000" transform="translate(0,0)"/>
<path d="" fill="#000000" transform="translate(0,0)"/>
<path d="" fill="#000000" transform="translate(0,0)"/>
<path d="" fill="#000000" transform="translate(0,0)"/>
<path d="" fill="#000000" transform="translate(0,0)"/>
<path d="" fill="#000000" transform="translate(0,0)"/>
<path d="" fill="#000000" transform="translate(0,0)"/>
<path d="" fill="#000000" transform="translate(0,0)"/>
<path d="" fill="#000000" transform="translate(0,0)"/>
<path d="" fill="#000000" transform="translate(0,0)"/>
<path d="" fill="#000000" transform="translate(0,0)"/>
<path d="" fill="#000000" transform="translate(0,0)"/>
<path d="" fill="#000000" transform="translate(0,0)"/>
<path d="" fill="#000000" transform="translate(0,0)"/>
<path d="" fill="#000000" transform="translate(0,0)"/>
<path d="" fill="#000000" transform="translate(0,0)"/>
<path d="" fill="#000000" transform="translate(0,0)"/>
<path d="" fill="#000000" transform="translate(0,0)"/>
<path d="" fill="#000000" transform="translate(0,0)"/>
<path d="" fill="#000000" transform="translate(0,0)"/>
<path d="" fill="#000000" transform="translate(0,0)"/>
<path d="" fill="#000000" transform="translate(0,0)"/>
<path d="" fill="#000000" transform="translate(0,0)"/>
<path d="" fill="#000000" transform="translate(0,0)"/>
<path d="" fill="#000000" transform="translate(0,0)"/>
<path d="" fill="#000000" transform="translate(0,0)"/>
<path d="" fill="#000000" transform="translate(0,0)"/>
<path d="" fill="#000000" transform="translate(0,0)"/>
<path d="" fill="#000000" transform="translate(0,0)"/>
<path d="" fill="#000000" transform="translate(0,0)"/>
<path d="" fill="#000000" transform="translate(0,0)"/>
<path d="" fill="#000000" transform="translate(0,0)"/>
<path d="" fill="#000000" transform="translate(0,0)"/>
<path d="" fill="#000000" transform="translate(0,0)"/>
<path d="" fill="#000000" transform="translate(0,0)"/>
<path d="" fill="#000000" transform="translate(0,0)"/>
<path d="" fill="#000000" transform="translate(0,0)"/>
<path d="" fill="#000000" transform="translate(0,0)"/>
<path d="" fill="#000000" transform="translate(0,0)"/>
<path d="" fill="#000000" transform="translate(0,0)"/>
<path d="" fill="#000000" transform="translate(0,0)"/>
<path d="" fill="#000000" transform="translate(0,0)"/>
<path d="" fill="#000000" transform="translate(0,0)"/>
<path d="" fill="#000000" transform="translate(0,0)"/>
<path d="" fill="#000000" transform="translate(0,0)"/>
<path d="" fill="#000000" transform="translate(0,0)"/>
<path d="" fill="#000000" transform="translate(0,0)"/>
<path d="" fill="#000000" transform="translate(0,0)"/>
<path d="" fill="#000000" transform="translate(0,0)"/>
<path d="" fill="#000000" transform="translate(0,0)"/>
<path d="" fill="#000000" transform="translate(0,0)"/>
<path d="" fill="#000000" transform="translate(0,0)"/>
<path d="" fill="#000000" transform="translate(0,0)"/>
<path d="" fill="#000000" transform="translate(0,0)"/>
<path d="" fill="#000000" transform="translate(0,0)"/>
<path d="" fill="#000000" transform="translate(0,0)"/>
<path d="" fill="#000000" transform="translate(0,0)"/>
<path d="" fill="#000000" transform="translate(0,0)"/>
<path d="" fill="#000000" transform="translate(0,0)"/>
<path d="" fill="#000000" transform="translate(0,0)"/>
<path d="" fill="#000000" transform="translate(0,0)"/>
<path d="" fill="#000000" transform="translate(0,0)"/>
<path d="" fill="#000000" transform="translate(0,0)"/>
<path d="" fill="#000000" transform="translate(0,0)"/>
<path d="" fill="#000000" transform="translate(0,0)"/>
<path d="" fill="#000000" transform="translate(0,0)"/>
<path d="" fill="#000000" transform="translate(0,0)"/>
<path d="" fill="#000000" transform="translate(0,0)"/>
<path d="" fill="#000000" transform="translate(0,0)"/>
<path d="" fill="#000000" transform="translate(0,0)"/>
<path d="" fill="#000000" transform="translate(0,0)"/>
<path d="" fill="#000000" transform="translate(0,0)"/>
<path d="" fill="#000000" transform="translate(0,0)"/>
<path d="" fill="#000000" transform="translate(0,0)"/>
<path d="" fill="#000000" transform="translate(0,0)"/>
<path d="" fill="#000000" transform="translate(0,0)"/>
<path d="" fill="#000000" transform="translate(0,0)"/>
<path d="" fill="#000000" transform="translate(0,0)"/>
<path d="" fill="#000000" transform="translate(0,0)"/>
<path d="" fill="#000000" transform="translate(0,0)"/>
<path d="" fill="#000000" transform="translate(0,0)"/>
<path d="" fill="#000000" transform="translate(0,0)"/>
<path d="" fill="#000000" transform="translate(0,0)"/>
<path d="" fill="#000000" transform="translate(0,0)"/>
<path d="" fill="#000000" transform="translate(0,0)"/>
<path d="" fill="#000000" transform="translate(0,0)"/>
<path d="" fill="#000000" transform="translate(0,0)"/>
<path d="" fill="#000000" transform="translate(0,0)"/>
<path d="" fill="#000000" transform="translate(0,0)"/>
<path d="" fill="#000000" transform="translate(0,0)"/>
<path d="" fill="#000000" transform="translate(0,0)"/>
<path d="" fill="#000000" transform="translate(0,0)"/>
<path d="" fill="#000000" transform="translate(0,0)"/>
<path d="" fill="#000000" transform="translate(0,0)"/>
<path d="" fill="#000000" transform="translate(0,0)"/>
<path d="" fill="#000000" transform="translate(0,0)"/>
<path d="" fill="#000000" transform="translate(0,0)"/>
<path d="" fill="#000000" transform="translate(0,0)"/>
<path d="" fill="#000000" transform="translate(0,0)"/>
<path d="" fill="#000000" transform="translate(0,0)"/>
<path d="" fill="#000000" transform="translate(0,0)"/>
<path d="" fill="#000000" transform="translate(0,0)"/>
<path d="" fill="#000000" transform="translate(0,0)"/>
<path d="" fill="#000000" transform="translate(0,0)"/>
<path d="" fill="#000000" transform="translate(0,0)"/>
<path d="" fill="#000000" transform="translate(0,0)"/>
<path d="" fill="#000000" transform="translate(0,0)"/>
<path d="" fill="#000000" transform="translate(0,0)"/>
<path d="" fill="#000000" transform="translate(0,0)"/>
<path d="" fill="#000000" transform="translate(0,0)"/>
<path d="" fill="#000000" transform="translate(0,0)"/>
<path d="" fill="#000000" transform="translate(0,0)"/>
<path d="" fill="#000000" transform="translate(0,0)"/>
<path d="" fill="#000000" transform="translate(0,0)"/>
<path d="" fill="#000000" transform="translate(0,0)"/>
<path d="" fill="#000000" transform="translate(0,0)"/>
<path d="" fill="#000000" transform="translate(0,0)"/>
<path d="" fill="#000000" transform="translate(0,0)"/>
<path d="" fill="#000000" transform="translate(0,0)"/>
<path d="" fill="#000000" transform="translate(0,0)"/>
<path d="" fill="#000000" transform="translate(0,0)"/>
</svg>
